<?xml version="1.0" encoding="UTF-8"?>
<svg id="Layer_2" data-name="Layer 2" xmlns="http://www.w3.org/2000/svg" viewBox="0 0 1285.62 519.78">
  <defs>
    <style>
      .cls-1 {
        fill: #0981be;
        stroke-width: 0px;
      }
    </style>
  </defs>
  <path class="cls-1" d="M26.02,298.87c-.71-.24-1.19-6.78-1.19-16.05,0-18.19,1.43-22.7,8.32-26.03,5.71-2.85,10.7-2.62,15.57.59,6.66,4.4,7.61,7.73,7.25,25.2-.24,8.44-.48,15.57-.71,15.81-.59.48-27.7.95-29.24.48ZM49.08,294.36c1.55-.59,1.9-2.97,1.9-14.38,0-13.43,0-13.67-3.45-17.12-5.82-5.71-13.55-4.04-16.76,3.57-.83,2.26-1.31,7.61-1.07,14.38.36,9.15.83,11.17,2.73,12.6,2.38,1.66,13.08,2.26,16.64.95h0Z"/>
  <path class="cls-1" d="M385.24,297.57c-2.73-2.73-1.43-30.43,1.55-35.54,6.18-10.34,22.82-9.39,27.46,1.55,2.26,5.47,2.38,34.95.24,35.19-.83.12-7.37.24-14.5.36-9.98.12-13.43-.24-14.74-1.55ZM409.73,293.64c1.9-1.9,1.9-23.54,0-27.7-1.55-3.45-6.54-6.54-10.46-6.54-1.43,0-4.16,1.55-6.06,3.45-3.45,3.45-3.45,3.68-3.45,17.12,0,9.87.48,13.91,1.55,14.26,2.97,1.31,17,.83,18.42-.59Z"/>
  <path class="cls-1" d="M745.18,298.87c-.71-.24-1.19-6.78-1.19-16.05,0-12.6.48-16.52,2.14-19.85,2.26-4.64,8.44-8.32,14.03-8.32,4.4,0,11.17,4.28,13.19,8.32,1.66,3.21,2.26,35.54.71,35.78-2.97.36-27.93.36-28.89.12ZM768.24,294.36c1.55-.59,1.9-2.97,1.9-14.38,0-13.43,0-13.67-3.45-17.12-5.47-5.47-12.6-4.4-16.17,2.5-1.19,2.38-1.78,6.89-1.78,14.26,0,13.43,1.43,15.45,11.17,15.45,3.57,0,7.25-.36,8.32-.71Z"/>
  <path class="cls-1" d="M1104.4,297.92c-1.43-1.07-1.66-4.04-1.19-16.64.48-17.24,2.02-21.63,8.8-24.84,7.85-3.68,15.69-1.66,20.33,5.23,2.5,3.68,2.73,5.35,2.73,20.45,0,12.36-.36,16.52-1.43,16.64-8.44.71-27.82.24-29.24-.83h0ZM1128.88,293.64c1.9-1.9,1.9-23.54,0-27.7-1.55-3.45-6.54-6.54-10.46-6.54-1.43,0-4.16,1.55-6.06,3.45-3.45,3.45-3.45,3.68-3.45,17.12,0,9.87.48,13.91,1.55,14.26,2.97,1.31,17,.83,18.42-.59Z"/>
  <path class="cls-1" d="M90.09,295.19c-5.71-1.9-8.2-3.8-10.58-8.44-9.75-19.02,14.38-35.66,28.41-19.61,3.09,3.57,3.68,5.23,3.68,10.46,0,6.78-2.73,12.6-7.37,15.57-3.57,2.26-10.22,3.21-14.15,2.02h0ZM103.4,288.18c2.85-2.5,3.8-4.52,4.28-8.92.59-5.11.36-5.82-3.57-9.75-3.57-3.57-4.99-4.16-9.51-4.16-6.42,0-10.94,3.21-12.6,8.8-1.55,5.82-.36,9.75,4.28,13.79,5.47,4.87,11.89,4.87,17.12.24Z"/>
  <path class="cls-1" d="M91.4,286.51c-6.3-2.38-7.85-9.87-2.97-14.62,3.57-3.68,7.85-3.8,12.01-.24,7.73,6.78.59,18.42-9.03,14.86ZM99.01,280.57c1.9-3.09-.48-6.3-4.75-6.3-2.73,0-3.57.59-3.8,2.73-.83,5.59,5.59,8.2,8.56,3.57Z"/>
  <path class="cls-1" d="M139.66,286.63c-8.32-5.35-14.98-9.75-14.74-9.98,5.47-4.28,30.07-18.42,31.26-17.95,3.68,1.31,26.86,17.59,26.51,18.42-.36,1.07-20.92,15.33-25.44,17.71-2.26,1.19-4.4.12-17.59-8.2h0ZM165.34,284.25c5.11-3.33,9.27-6.78,9.27-7.49,0-1.43-17.24-12.96-19.49-12.96-1.66,0-20.92,12.12-20.92,13.19,0,.95,19.14,13.19,20.68,13.31.71,0,5.35-2.73,10.46-6.06h0Z"/>
  <path class="cls-1" d="M148.22,281.4c-2.38-1.55-4.64-3.45-4.99-4.04-.95-1.43,8.68-7.25,12.01-7.25,2.62,0,9.98,4.64,10.7,6.66.48,1.55-9.15,7.61-11.77,7.49-.83,0-3.57-1.31-5.94-2.85h0Z"/>
  <path class="cls-1" d="M448.72,295.07c-7.25-2.26-11.41-8.68-11.41-17.95,0-5.47.48-6.54,4.52-10.58,5.82-5.94,11.53-7.13,19.14-4.04,10.58,4.28,13.79,17.95,6.3,26.86-4.99,5.94-11.17,7.85-18.54,5.71h0ZM460.96,289.84c4.04-2.14,6.06-6.42,6.06-12.72,0-12.84-18.9-16.52-24.84-4.99-2.62,5.23-1.66,10.94,2.73,15.33,4.52,4.52,10.1,5.35,16.05,2.38h0Z"/>
  <path class="cls-1" d="M447.53,284.49c-3.09-3.45-2.14-10.58,1.9-13.55,7.61-5.71,17.71,4.4,12.01,12.01-3.09,4.16-10.7,5.11-13.91,1.55ZM458.11,278.43c0-3.92-.24-4.16-4.16-4.16-3.45,0-4.28.48-4.52,2.73-.59,3.8,1.9,6.42,5.59,5.94,2.62-.36,3.09-.95,3.09-4.52h0Z"/>
  <path class="cls-1" d="M805.92,293.64c-15.22-7.85-11.41-30.43,5.47-32.69,6.66-.83,14.98,2.97,17.71,8.2,2.73,5.35,2.62,14.62-.36,18.54-6.06,8.08-14.5,10.34-22.82,5.94ZM821.01,289.6c6.54-4.52,7.96-13.67,3.09-19.38-5.47-6.54-13.55-7.01-19.49-1.07-2.85,2.85-3.57,4.52-3.57,8.92s.59,5.94,4.04,9.39c3.21,3.21,4.99,4.04,8.68,4.04,2.5,0,5.82-.83,7.25-1.9Z"/>
  <path class="cls-1" d="M810.55,286.51c-6.3-2.38-7.85-9.87-2.97-14.62,4.52-4.64,12.12-3.21,14.74,2.62,1.78,4.04,1.66,5.59-1.07,8.92-2.62,3.45-6.66,4.64-10.7,3.09h0ZM817.45,281.76c3.68-3.68-1.31-10.46-5.94-7.96-4.04,2.14-2.02,9.39,2.62,9.39,1.07,0,2.5-.59,3.33-1.43h0Z"/>
  <path class="cls-1" d="M858.81,286.63c-8.32-5.35-14.98-9.75-14.74-9.98,4.99-4.04,29.95-18.54,31.26-17.95,3.09,1.19,26.75,17.35,26.75,18.31,0,.71-21.63,15.57-26.86,18.42-.71.48-8.08-3.57-16.4-8.8ZM884.49,284.25c5.11-3.33,9.27-6.78,9.27-7.49,0-1.43-17.47-12.96-19.61-12.96-1.66,0-20.8,12.24-20.8,13.19s19.14,13.08,20.68,13.19c.71.12,5.35-2.62,10.46-5.94h0Z"/>
  <path class="cls-1" d="M868.68,282c-7.49-3.92-7.85-5.35-1.9-8.8,2.85-1.66,6.3-3.09,7.61-3.09,2.62,0,9.98,4.52,10.7,6.54.36,1.19-9.03,7.73-11.05,7.73-.59-.12-2.97-1.07-5.35-2.38Z"/>
  <path class="cls-1" d="M1168.94,295.43c-3.8-.95-8.8-4.99-10.7-8.68-.95-1.9-1.78-6.18-1.78-9.39,0-4.99.59-6.66,3.68-10.22,7.01-7.96,18.07-8.44,25.32-1.19,6.89,6.89,7.13,16.29.59,23.77-2.02,2.26-5.59,4.64-7.96,5.35-4.64,1.19-5.35,1.31-9.15.36h0ZM1180,289.84c8.2-4.28,8.92-17.24,1.31-22.59-4.4-2.97-13.19-2.5-16.88.95-11.53,10.7,1.55,28.89,15.57,21.63Z"/>
  <path class="cls-1" d="M1166.8,284.61c-3.21-3.57-2.62-10.34,1.07-13.19,3.92-3.09,7.73-3.21,11.05-.36,6.54,5.47,2.85,15.69-5.71,15.69-2.85,0-5.23-.83-6.42-2.14h0ZM1177.86,280.81c1.43-2.62,0-6.54-2.62-7.49-4.64-1.55-8.8,4.4-5.71,8.08,2.14,2.5,6.78,2.26,8.32-.59Z"/>
  <path class="cls-1" d="M498.05,286.04c-7.49-4.99-13.08-9.39-12.48-9.87,1.66-1.55,27.93-17.95,28.65-17.95.83,0,22.47,13.79,26.27,16.76l2.73,2.14-13.43,8.92c-7.37,4.99-14.5,9.03-15.81,8.92-1.31,0-8.44-4.04-15.93-8.92h0ZM524.67,284.37c4.75-3.21,9.03-6.42,9.39-6.89.36-.59-3.92-4.16-9.51-7.85l-10.1-6.78-10.7,6.66c-5.82,3.68-10.22,7.25-9.87,7.96,1.07,1.78,18.66,12.84,20.45,12.84.83,0,5.47-2.62,10.34-5.94h0Z"/>
  <path class="cls-1" d="M507.08,280.69c-6.3-4.16-6.42-3.57,2.97-9.27l4.52-2.62,4.75,3.33c2.62,1.78,4.64,4.16,4.4,5.11-.24,1.78-7.49,7.13-9.63,7.13-.71,0-3.8-1.66-7.01-3.68h0Z"/>
  <path class="cls-1" d="M1218.27,286.63c-6.89-4.52-12.6-8.8-12.84-9.63-.24-1.31,24.25-17.59,27.93-18.54,1.19-.36,24.49,14.26,28.17,17.59,1.31,1.31-25.32,19.02-28.41,18.9-1.31,0-7.96-3.8-14.86-8.32h0ZM1243.83,284.37c4.75-3.21,9.03-6.42,9.51-7.13.36-.59-3.8-4.16-9.39-7.85l-10.1-6.66-10.82,6.78c-5.82,3.68-10.46,7.25-9.98,7.85.95,1.66,18.78,12.96,20.45,12.96.83,0,5.47-2.62,10.34-5.94h0Z"/>
  <path class="cls-1" d="M1226.24,280.69l-5.59-3.8,6.42-4.04,6.54-4.04,4.87,3.21c5.71,3.8,5.71,5.82.12,9.63-5.11,3.45-5.59,3.45-12.36-.95h0Z"/>
  <path class="cls-1" d="M264.59,293.17c-.48-.48-.83-2.97-.83-5.47,0-4.28.83-5.23,4.04-4.64.71.12,2.38,0,3.8-.36,2.26-.59,2.73-1.66,3.09-5.82.36-4.87.48-4.99,5.11-5.35,5.35-.48,6.54-1.66,6.54-6.89,0-3.09.59-3.92,3.09-4.52,5.35-1.43,7.49.12,7.85,5.59.36,4.75.59,4.99,4.52,5.35,5.35.59,6.89,1.9,7.37,6.42.48,4.4,3.09,6.3,7.25,5.23,2.62-.59,3.09-1.43,3.45-5.82.36-4.87.48-4.99,5.11-5.59s4.75-.71,5.11-5.47c.36-4.4.71-4.99,3.92-5.71,5.59-1.07,8.2.95,8.2,6.42q0,4.64,5.11,4.99c4.87.36,4.99.48,5.35,5.11.48,5.35,1.66,6.54,7.01,6.54,3.09,0,4.04.59,4.64,2.85.36,1.55.12,4.04-.71,5.47-1.07,2.02-2.26,2.5-5.71,2.14-4.04-.36-4.4-.71-4.75-4.52-.59-5.23-2.38-7.49-5.71-6.78-3.68.71-4.52-.24-5.82-5.71-1.19-4.52-1.43-4.75-5.94-4.75s-4.75.12-5.11,4.75c-.48,5.23-2.02,6.89-5.71,5.94-3.21-.71-4.87,1.31-5.47,6.54-.36,3.8-.71,4.16-4.28,4.52-5.11.48-7.37-1.43-7.37-6.3,0-4.16-1.78-5.59-5.59-4.64-2.97.83-4.87-1.55-5.35-6.66-.36-3.8-.71-4.16-4.28-4.52-4.64-.48-7.73,1.66-6.78,4.64.48,1.19.12,3.33-.59,4.75-1.07,1.9-2.14,2.38-4.75,1.78-4.04-.71-5.59.83-6.18,6.42-.36,3.8-.71,4.16-4.52,4.52-2.38.24-4.64,0-5.11-.48h0Z"/>
  <path class="cls-1" d="M623.57,293.05c-.48-.36-.83-2.85-.83-5.35,0-4.28.24-4.52,3.92-4.52,5.35,0,7.01-1.43,7.85-6.66.71-4.4,1.07-4.64,5.47-5.23,4.52-.59,4.75-.83,5.35-5.35.59-4.64.71-4.75,5.71-5.11,4.87-.36,4.99-.24,4.99,3.21,0,5.94,1.07,7.25,5.94,7.25s5.94,1.31,5.94,6.54c0,3.21,3.09,5.35,7.61,5.35,2.73,0,2.97-.48,3.33-5.59l.36-5.71,5.11-.36,5.11-.36-.36,5.11c-.24,4.04-.83,5.11-2.73,5.47-7.37,1.07-7.61,1.31-7.96,6.54q-.36,4.99-5.11,4.99c-4.64,0-4.75-.12-5.11-4.4-.36-4.75-3.57-7.73-6.78-6.42-2.26.83-5.47-2.38-4.64-4.64.36-.83,0-2.73-.71-4.16-1.07-2.02-2.26-2.38-5.71-2.14-4.04.36-4.4.71-4.75,4.52-.59,5.35-2.38,7.49-5.71,6.66-3.21-.83-6.42,1.9-6.42,5.71,0,1.43-.59,3.21-1.43,4.04-1.55,1.55-7.13,1.9-8.44.59h0Z"/>
  <path class="cls-1" d="M712.61,291.98c-.36-1.07-.71-3.45-.71-5.23,0-3.21-.36-3.45-4.99-3.8-4.87-.36-5.11-.59-5.47-4.52-.59-5.59-2.14-7.13-6.89-7.13q-4.04,0-4.04-5.47v-5.35l5.11.36c4.87.36,4.99.48,5.59,5.11.59,4.52.83,4.75,5.35,5.35,4.4.59,4.75.83,5.11,4.75.59,5.47,1.9,6.89,7.13,7.37,4.75.36,5.82,2.26,4.52,7.61-.59,2.38-1.43,2.85-5.35,2.85-3.09,0-4.87-.59-5.35-1.9h0Z"/>
  <path class="cls-1" d="M983.75,293.17c-.48-.48-.83-2.85-.83-5.35,0-4.28,2.26-6.78,4.87-5.11.59.36,2.14.36,3.45-.12,1.66-.48,2.38-2.02,2.62-5.71.36-4.87.48-4.99,5.11-5.35,5.35-.48,6.54-1.66,6.54-6.89,0-3.09.59-3.92,3.09-4.52,5.35-1.43,7.49.12,7.85,5.59q.36,4.99,5.35,5.35c5.23.36,5.47.59,6.54,7.85.48,3.09,3.57,4.75,7.25,3.8,2.62-.59,3.09-1.43,3.45-5.82.36-4.87.48-4.99,5.11-5.59s4.75-.71,5.11-5.59c.36-4.04.83-4.99,3.33-5.59,1.55-.48,4.16-.48,5.71,0,2.5.59,2.97,1.55,3.33,5.59.36,4.87.48,4.99,5.11,5.59,4.4.59,4.75.83,5.11,4.75.59,5.47,2.14,7.13,6.89,7.13,3.33,0,4.16.48,4.75,3.21,1.19,4.64-.83,6.89-6.18,6.89-4.4,0-4.64-.24-4.99-4.16-.59-5.23-2.38-7.49-5.71-6.78-3.68.71-4.52-.24-5.82-5.71-1.19-4.52-1.43-4.75-5.94-4.75s-4.75.12-5.11,4.75c-.48,5.23-2.02,6.89-5.71,5.94-3.21-.71-4.87,1.31-5.47,6.54-.36,4.04-.48,4.16-5.71,4.16h-5.35l-.36-4.75c-.48-5.23-1.9-6.78-5.71-5.82-3.09.83-4.87-1.43-5.47-6.66-.36-4.04-.59-4.16-5.11-4.16s-4.75.12-5.11,4.4c-.36,4.87-3.45,7.49-7.25,6.3-2.85-.83-4.64,1.43-5.11,6.54-.36,3.8-.71,4.16-4.52,4.52-2.38.24-4.64,0-5.11-.48h0Z"/>
  <path class="cls-1" d="M202.66,283.9c-5.35-4.99-5.35-7.85-.24-13.55l4.04-4.4,16.64-.36c19.61-.48,24.25.83,26.98,7.37,2.14,4.99,1.07,8.8-3.68,12.48-2.97,2.26-4.64,2.5-21.4,2.5h-18.19l-4.16-4.04h0Z"/>
  <path class="cls-1" d="M564.5,286.04c-7.25-4.87-8.2-11.53-2.38-16.4,4.75-3.92,8.92-4.64,26.63-4.16,13.67.48,14.98.71,17.83,3.33,5.94,5.59,5.11,12.48-2.02,16.76-3.33,2.02-6.06,2.38-20.45,2.38-13.55,0-17.24-.36-19.61-1.9h0Z"/>
  <path class="cls-1" d="M921.7,284.25c-5.35-4.75-5.35-8.08-.12-13.91l4.04-4.4,15.93-.36c18.78-.48,23.89.59,27.1,6.06,3.33,5.35,2.97,7.61-1.66,12.24l-4.04,4.04h-36.97l-4.28-3.68h0Z"/>
</svg>