<?xml version="1.0" encoding="UTF-8"?>
<svg id="Layer_1" data-name="Layer 1" xmlns="http://www.w3.org/2000/svg" viewBox="0 0 566.62 519.78">
  <defs>
    <style>
      .cls-1 {
        fill: #f47636;
      }

      .cls-1, .cls-2, .cls-3, .cls-4, .cls-5, .cls-6, .cls-7, .cls-8, .cls-9, .cls-10, .cls-11, .cls-12, .cls-13 {
        stroke-width: 0px;
      }

      .cls-2 {
        fill: #cb8a37;
      }

      .cls-3 {
        fill: #c2263d;
      }

      .cls-4 {
        fill: #f99c38;
      }

      .cls-5 {
        fill: #8a163e;
      }

      .cls-6 {
        fill: #193e6d;
      }

      .cls-7 {
        fill: #29c0d3;
      }

      .cls-8 {
        fill: #28a453;
      }

      .cls-9 {
        fill: #ca9937;
      }

      .cls-10 {
        fill: #ee313d;
      }

      .cls-11 {
        fill: #0981be;
      }

      .cls-12 {
        fill: #487746;
      }

      .cls-13 {
        fill: #f04d37;
      }
    </style>
  </defs>
  <g>
    <path class="cls-4" d="M120.07,252.9c.27-.44,3.82-3.2,7.73-6.13,12.26-8.8,12.09-8.18,2.04-6.84-10.58,1.42-12.17,1.51-11.55.44.27-.44,3.38-1.07,6.93-1.33q13.51-1.33,2.04-6.31c-5.6-2.4-10.22-4.71-10.22-5.07,0-.98.09-.98,5.87,1.6,13.24,5.69,17.24,7.91,17.24,9.15,0,.8-4.27,4.44-9.51,8.09-9.6,6.84-11.64,8-10.58,6.4h0Z"/>
    <path class="cls-4" d="M141.05,237.71c0-.53.89-.98,2.04-.98,2.13,0,54.83-6.13,58.21-6.75,1.51-.27,1.96-.98,1.96-3.11,0-4.27,1.42-6.22,4-5.6,1.87.44,2.22.18,2.22-1.33,0-1.96-.09-1.96,8-2.4,7.46-.36,11.55,2.93,11.55,9.33,0,3.2-3.47,7.55-7.11,8.89-2.49.8-2.67.71-2.67-1.33,0-1.69.53-2.31,2.58-2.67,2.22-.44,2.75-1.07,3.2-4.09.62-3.29-.27-5.95-1.07-3.55-.27.62-1.78.98-3.64.98-2.13-.09-2.58-.27-1.24-.53,2.58-.53,2.49-1.87-.18-3.02-2.58-1.24-7.91-.36-9.42,1.42-.98,1.16-.71,1.33,1.69,1.33,2.13,0,2.75.36,2.75,1.78,0,1.51-.62,1.78-3.55,1.78-4.09,0-4.44.98-1.33,4,1.6,1.6,3.11,2.22,5.78,2.22,4.27,0,4.98,2.22.89,3.11-3.64.8-8.44-.98-10.49-3.82l-1.69-2.31-12,1.51c-6.58.8-19.2,2.31-27.9,3.29-8.71.98-17.42,2.04-19.2,2.31-2.13.36-3.38.18-3.38-.44h0Z"/>
    <path class="cls-4" d="M220.58,188.03c-1.51-.89-4-3.11-5.6-4.98-3.29-3.73-3.82-8.8-1.33-12.62,1.6-2.58,3.64,0-15.91-20.35-22.75-23.82-19.99-21.42-27.37-23.55-10.75-3.02-17.95-5.51-17.51-5.95.27-.18,4.98,1.07,10.4,2.84,5.51,1.78,10.4,3.02,10.84,2.93.44-.18-2.22-3.55-5.95-7.64-3.73-4-6.49-7.29-6.13-7.29s3.47,3.02,6.93,6.75c3.38,3.73,6.4,6.4,6.49,5.95.18-.53-.71-5.42-1.96-10.93s-2.13-10.13-1.87-10.4c.18-.18,1.69,5.24,3.29,12.17,2.58,11.11,3.29,12.97,5.95,15.82,1.69,1.78,9.95,10.4,18.31,19.2,8.35,8.71,15.37,16.17,15.73,16.62.27.44,1.69.36,3.11-.27,5.07-1.87,10.22.98,14.66,8.09,3.47,5.42,3.38,8.35-.44,12.17-3.55,3.55-7.38,4-11.64,1.42h0ZM230.18,177.1c-.71-2.75-5.24-7.02-7.29-7.02-1.6,0-1.78.27-.98,1.69.44.98,1.16,1.87,1.51,2.04.44.09,1.87,1.78,3.29,3.73,2.58,3.38,4.35,3.2,3.47-.44h0Z"/>
  </g>
  <path class="cls-7" d="M296.56,505.55c0-4.27.18-4.89,1.78-4.89,1.42,0,1.78.62,1.78,2.93,0,4.18-.89,6.84-2.31,6.84-.89,0-1.24-1.33-1.24-4.89Z"/>
  <path class="cls-7" d="M293.01,496.93c0-4.27.89-6.93,2.31-6.93.89,0,1.24,1.33,1.24,4.89,0,4.27-.18,4.89-1.78,4.89-1.42,0-1.78-.62-1.78-2.84Z"/>
  <path class="cls-7" d="M293.54,382.29c-.27-1.16-.53-3.55-.53-5.33,0-2.75.36-3.38,1.78-3.38,1.6,0,1.78.62,1.78,5.33,0,3.91-.36,5.33-1.24,5.33-.62,0-1.42-.89-1.78-1.96Z"/>
  <path class="cls-7" d="M268.21,373.41c-.98-2.13-3.11-6.84-4.8-10.49l-3.02-6.66-.62,6.22c-1.07,10.66-1.6,13.77-2.4,13.33-.36-.27-.53-.98-.36-1.6.18-.62.53-4.89.89-9.51l.53-8.44-6.31,8.89c-5.6,7.91-8,10.58-8,8.98,0-.27,3.38-5.24,7.46-11.11l7.55-10.49,2.93-29.41c2.93-29.33,2.93-29.41,1.16-29.86-3.73-.98-5.78-3.91-5.78-8.35,0-4.98,3.29-12.62,6.31-14.75,5.15-3.55,13.42-.09,14.66,6.13,1.33,7.46-3.73,17.33-8.98,17.33-1.24,0-2.49.53-2.67,1.16-.18.53-1.6,14.04-3.2,29.95l-2.75,28.88,3.73,8c2.04,4.44,4.53,9.6,5.42,11.46q1.96,4.09.8,4.09c-.53,0-1.69-1.69-2.58-3.73h0ZM272.48,286.85c6.04-7.73-.18-19.11-6.84-12.44q-2.31,2.31-.36,2.31c1.6,0,1.96.53,1.96,2.58,0,3.02-1.69,8.26-3.02,9.15-1.51.98,3.2,2.4,4.98,1.51.8-.44,2.31-1.87,3.29-3.11h0ZM263.59,279.83c0-.44-.53-.09-1.24.8-.71.98-1.33,2.75-1.24,4,0,2.13.18,2.04,1.24-.8.62-1.69,1.24-3.47,1.24-4Z"/>
  <path class="cls-7" d="M296.56,366.48c0-3.91.36-5.33,1.24-5.33,1.42,0,2.31,2.67,2.31,7.38,0,2.67-.36,3.29-1.78,3.29-1.6,0-1.78-.62-1.78-5.33Z"/>
  <path class="cls-7" d="M292.65,341.42c-1.07-4.27-.62-6.93,1.24-6.93,1.51,0,1.78-.62,1.78-4,0-4.35,2.04-5.69,3.02-1.96,1.07,4.18.62,6.84-1.24,6.84-1.51,0-1.78.62-1.78,4,0,4.35-2.04,5.69-3.02,2.04Z"/>
  <path class="cls-7" d="M291.76,312.98c-1.07-4-.62-6.04,1.24-6.04,1.51,0,1.78-.62,1.78-3.55,0-4,2.04-5.07,3.02-1.51,1.07,3.91.62,5.95-1.24,5.95-1.51,0-1.78.62-1.78,3.55,0,4-2.04,5.07-3.02,1.6Z"/>
  <path class="cls-7" d="M290.87,289.87c-1.07-4.27-.62-6.93,1.24-6.93,1.42,0,1.78-.62,1.78-2.67,0-3.2,2.22-3.64,3.02-.62,1.07,3.91.62,5.95-1.24,5.95-1.42,0-1.78.62-1.78,3.11,0,3.55-2.13,4.35-3.02,1.16Z"/>
  <path class="cls-7" d="M289.99,267.66c-1.07-4-.62-6.04,1.24-6.04,1.16,0,1.78-.62,1.78-1.78,0-2.4,2.31-2.22,3.02.27.98,3.64.62,5.07-1.24,5.07-1.33,0-1.78.62-1.78,2.22,0,2.75-2.22,2.93-3.02.27Z"/>
  <path class="cls-7" d="M289.01,246.6c-.44-2.04-1.24-2.75-3.2-3.2-1.51-.36-4.18-2.04-5.95-3.82l-3.29-3.29,2.49-.27c2.4-.27,5.07,1.42,5.07,3.29,0,.53.89.98,2.04.98,4.98,0,5.95.89,5.95,4.98,0,4.62-2.13,5.51-3.11,1.33Z"/>
  <path class="cls-7" d="M306.34,234.51c0-2.75.27-3.11,2.31-3.11,1.24,0,2.13.27,1.96.71-3.11,6.49-4.27,7.11-4.27,2.4h0Z"/>
  <path class="cls-7" d="M274.43,230.78c-.62-1.24-2.75-12.62-2.75-14.84,0-.27.71-.53,1.6-.53,1.24,0,1.78,1.24,2.67,6.93.62,3.73,1.07,7.55,1.07,8.44,0,1.96-1.51,1.96-2.58,0Z"/>
  <path class="cls-7" d="M271.68,213.45c0-2.67,1.16-5.15,2.31-5.15.8,0,1.24,1.07,1.24,3.11,0,2.49-.36,3.11-1.78,3.11-.98,0-1.78-.53-1.78-1.07Z"/>
  <path class="cls-7" d="M306.87,207.23c-.8-3.2-.62-6.93.44-6.93.98,0,3.47,5.33,3.47,7.55s-3.29,1.6-3.91-.62Z"/>
  <path class="cls-7" d="M273.46,205.54c0-2.58,8-10.58,10.58-10.58,1.24,0,1.87.53,1.87,1.69,0,1.87-1.69,2.75-5.42,2.75-2.22,0-2.58.36-2.58,2.58,0,3.73-.89,5.42-2.75,5.42-1.16,0-1.69-.62-1.69-1.87Z"/>
  <path class="cls-7" d="M364.99,199.41c0-1.07,2.93-2.67,4.8-2.67.8,0,1.42.8,1.42,1.78,0,1.42-.62,1.78-3.11,1.78-1.69,0-3.11-.36-3.11-.89Z"/>
  <path class="cls-7" d="M297.45,195.85c0-1.96,1.78-2.31,4.53-.89,2.67,1.42,2.04,2.67-1.42,2.67-2.49,0-3.11-.36-3.11-1.78Z"/>
  <path class="cls-7" d="M364.37,193.63c-.62-1.78-.27-2.04,3.02-2.75,2.4-.44,2.75-.27,3.11,1.78.44,2.13.18,2.31-2.58,2.31-1.87,0-3.2-.53-3.55-1.33Z"/>
  <path class="cls-7" d="M406.93,182.35c.18-.53,1.69-1.6,3.29-2.22,2.31-.98,2.84-.98,2.58-.09-.18.53-1.69,1.6-3.29,2.22-2.31.98-2.84.98-2.58.09Z"/>
  <path class="cls-7" d="M420.09,176.21c0-.98,5.33-3.73,6.04-3.11.62.62-2.31,2.93-4.44,3.47-.89.27-1.6.09-1.6-.36Z"/>
  <path class="cls-7" d="M339.22,171.86c0-1.42.62-1.78,3.29-1.78,3.11,0,3.2,0,1.6,1.78-.89.98-2.31,1.78-3.29,1.78s-1.6-.62-1.6-1.78Z"/>
  <path class="cls-7" d="M330.86,170.17c-2.04-2.22-2.04-8.44-.09-14.31,1.33-4,1.78-4.44,4.09-4.44,2.84,0,3.11.89,2.04,7.38-.53,2.75-.98,3.29-2.67,3.29-2.04,0-2.13.18-1.6,4.89.36,2.67.44,4.89.18,4.89s-1.16-.8-1.96-1.69ZM334.15,155.15c.36-1.87.27-2.75-.27-2.4-.53.27-.89,1.78-.89,3.29,0,3.38.44,3.02,1.16-.89Z"/>
  <path class="cls-7" d="M342.77,151.33c0-.98.53-2.4,1.24-3.11,1.6-1.51,2.58-1.6,2.04-.09-.18.53.44,1.96,1.42,3.11l1.78,1.96h-3.2c-2.75,0-3.29-.36-3.29-1.87h0Z"/>
  <path class="cls-7" d="M347.66,138.36c.27-.89.98-3.47,1.42-5.78.53-2.4,1.33-4.27,1.78-4.27,1.07,0,1.07.36-.62,6.4-.8,2.84-1.87,5.15-2.31,5.15-.53,0-.62-.71-.27-1.51Z"/>
  <path class="cls-7" d="M351.66,125.12c0-1.96,2.13-8.35,2.84-8.35.44,0,.62.71.36,1.6-.18.8-.62,2.84-.98,4.44-.36,1.51-.98,2.84-1.42,2.84s-.8-.27-.8-.53Z"/>
  <path class="cls-7" d="M355.21,112.67c0-1.87,2.13-8.35,2.75-8.35.98,0,.98.18-.18,4.98-.53,2.13-1.33,3.91-1.78,3.91s-.8-.27-.8-.53Z"/>
  <path class="cls-7" d="M358.86,94.19c-1.24-4.89-1.24-5.87-.09-5.87.53,0,.89.98.89,2.22,0,3.29,1.51,2.67,2.13-.89.36-1.69.98-3.11,1.42-3.11,1.07,0,1.07.62,0,4.35q-.8,2.93.89,1.42c2.75-2.49,2.04-.36-.89,2.93-1.42,1.51-2.75,2.84-3.02,2.84-.18,0-.8-1.78-1.33-3.91Z"/>
  <path class="cls-7" d="M370.23,86.46c2.13-1.87,4.09-3.29,4.35-3.02.8.8-5.33,6.66-6.84,6.66-.89-.09.09-1.42,2.49-3.64h0Z"/>
  <path class="cls-7" d="M355.66,80.5c-2.22-9.78-1.24-12,1.16-2.67,2.13,8.62,2.31,9.6,1.24,9.6-.44,0-1.51-3.11-2.4-6.93h0Z"/>
  <path class="cls-7" d="M363.57,84.15c.27-.89.89-3.29,1.42-5.33.53-2.13,1.33-3.82,1.87-3.82s.71.71.44,1.6c-.18.8-.89,3.2-1.51,5.33-.62,2.04-1.42,3.73-1.87,3.73s-.62-.71-.36-1.51Z"/>
  <path class="cls-7" d="M375.65,82.28c0-.89,2.93-3.73,3.82-3.73,1.33,0,.44,1.69-1.6,3.02-1.24.8-2.22,1.16-2.22.71Z"/>
  <g>
    <path class="cls-1" d="M119.72,253.26c0-.18,3.2-2.67,7.2-5.6,4-2.84,8.26-6.04,9.6-7.2,1.96-1.69,2.04-1.96.53-1.6-.98.18-4.18.62-7.11.98-2.93.27-6.66.8-8.35,1.07-1.96.36-2.84.18-2.49-.36.36-.53,3.55-1.24,7.29-1.6,3.64-.36,7.73-.89,9.06-1.24l2.4-.62-3.47-1.42c-7.55-3.11-17.51-7.91-17.15-8.26.27-.27,5.33,1.78,11.29,4.44,8.09,3.64,12,4.89,14.93,4.89,2.22,0,15.11-1.42,28.61-3.11s26.04-3.11,27.99-3.29c3.38-.27,3.38-.36,3.55-4.09.27-5.24,2.49-7.2,9.6-8.35,7.91-1.42,12.35-.09,14.4,4.09,1.78,3.73,1.78,5.24.09,8.53-1.96,3.82-7.29,6.22-13.51,6.22-5.24-.09-6.93-.8-9.15-4.09l-1.33-1.78-19.55,2.4c-10.75,1.33-24.17,2.93-29.77,3.55-5.6.53-11.02,1.33-12,1.69s-6.31,3.91-11.82,7.91c-9.69,6.93-10.84,7.64-10.84,6.84h0ZM216.67,224.29c3.11,0,4.35-.36,4.35-1.24,0-2.58-7.2-3.2-10.49-.89-2.13,1.42-1.78,3.47.44,2.67.71-.27,3.29-.53,5.69-.53h0Z"/>
    <path class="cls-1" d="M265.28,165.02c-.89-.18-1.6-.98-1.6-1.69,0-.89,1.16-1.24,4.44-1.24s4.44.36,4.44,1.24c0,1.78-3.64,2.67-7.29,1.69Z"/>
    <path class="cls-1" d="M274.35,154.53c0-4.44.27-5.78,1.33-5.78,1.6,0,2.58,5.07,1.78,8.8-.36,1.51-1.16,2.75-1.87,2.75-.98,0-1.24-1.42-1.24-5.78Z"/>
    <path class="cls-1" d="M257.99,155.69c-.98-3.73-.62-5.15,1.24-5.15,1.51,0,1.78.62,1.78,3.55,0,4-2.04,5.07-3.02,1.6Z"/>
    <path class="cls-1" d="M258.08,146.09c.27-.98,1.42-2.58,2.58-3.47,1.16-.89,2.13-2.4,2.13-3.29,0-4.8-8.09-52.96-9.06-54.39-.62-.89-4.27-5.51-8.18-10.22-3.82-4.8-6.75-8.89-6.58-9.15.27-.18,3.55,3.38,7.38,8.09,3.82,4.62,7.11,8.35,7.29,8.09.36-.36-1.07-11.91-2.04-16.26-.18-1.16,0-2.04.36-2.04.44,0,1.33,3.73,1.96,8.18,1.69,12.8,1.87,12.89,6.22,1.07,4.09-11.29,4.18-11.55,4.89-10.93.18.27-1.6,5.87-4.09,12.44-5.07,13.51-4.98,11.11-1.24,35.01,1.24,7.38,2.58,16.35,3.11,19.99,1.51,11.2,1.6,11.37,4,10.84,1.78-.27,2.22,0,2.22,1.51,0,1.6-.53,1.87-3.55,1.87-3.2,0-3.55.27-3.55,2.22,0,1.78-.44,2.22-2.13,2.22s-2.04-.36-1.69-1.78Z"/>
    <path class="cls-1" d="M272.39,146c-1.69-1.78-2.13-5.24-.71-5.24,1.16,0,4.18,3.38,4.71,5.42.62,2.22-1.96,2.13-4-.18h0Z"/>
  </g>
  <g>
    <path class="cls-9" d="M386.58,357.14c0-1.96.18-2.67.36-1.51.18,1.07.18,2.67,0,3.55-.27.8-.44-.09-.36-2.04Z"/>
    <path class="cls-9" d="M394.31,348.52c-1.6-2.58-3.91-6.31-5.24-8.26l-2.31-3.55-.53,5.33-.53,5.33-.09-6.58-.18-6.58-7.29-11.64c-4-6.4-11.02-17.68-15.64-25.06l-8.44-13.42-4.27.44c-5.15.44-8.53-1.6-11.91-7.29-3.11-5.24-2.93-9.69.36-13.06,2.04-2.04,3.38-2.58,6.4-2.58,3.38,0,4.27.53,8.98,5.15,4.53,4.53,5.15,5.69,5.15,8.62,0,2.31-.62,4.09-1.96,5.51-1.87,2.04-1.96,2.31-.62,4.53,3.2,5.42,26.93,43.46,28.53,45.68.89,1.33,3.64,3.47,6.04,4.8,2.49,1.33,4.27,2.58,4,2.84-.18.18-1.78-.44-3.55-1.51-1.78-.98-3.38-1.87-3.55-1.87s1.6,3.11,3.91,6.93c2.31,3.73,4.71,7.73,5.33,8.89,1.87,3.55.44,2.04-2.58-2.67h0ZM354.95,272.99c-.62-2.31-3.82-4.62-5.15-3.73-.62.36.18,1.78,1.96,3.55,3.2,3.29,4,3.29,3.2.18h0Z"/>
    <path class="cls-9" d="M402.05,343.1c-3.29-1.96-5.87-3.73-5.69-3.91s2.93,1.16,6.04,2.93c6.13,3.47,6.58,3.73,6.04,4.18-.18.18-3.11-1.24-6.4-3.2h0Z"/>
    <path class="cls-9" d="M240.04,172.39c-4.62-2.04-9.06-11.37-7.91-16.53.98-4.35,3.11-3.38,3.11,1.42,0,2.4.53,4.53,1.33,5.33.71.8,1.33,2.31,1.33,3.55,0,1.51.44,2.13,1.78,2.13.98,0,1.78.44,1.78.89,0,.53,1.42.89,3.11.89,3.55,0,4.35,2.13,1.16,3.02-2.58.62-2.4.71-5.69-.71h0Z"/>
    <path class="cls-9" d="M249.46,163.86c0-3.2.36-4.44,1.24-4.44,1.51,0,2.49,3.73,1.78,6.66-.98,4.09-3.02,2.67-3.02-2.22Z"/>
    <path class="cls-9" d="M242.35,161.28c0-1.96.44-3.73,1.16-3.91.53-.27.18-.53-.89-.53-1.69-.09-2.04-.62-2.04-2.75s-.36-2.67-1.78-2.67c-2.4,0-2.22-2.31.27-3.02,4-1.07,6.49-.53,8.8,1.96,2.22,2.31,2.84,3.73,2.58,6.22-.18,1.78-1.87,1.16-2.93-1.07-.53-1.24-1.51-2.4-2.31-2.75-1.07-.36-1.24.09-.71,2.67.27,1.69.8,4.53,1.07,6.22.53,2.75.36,3.11-1.33,3.11-1.6,0-1.87-.53-1.87-3.47h0Z"/>
    <path class="cls-9" d="M234.53,143.69c-.89-3.02-.89-3.2.27-1.69,1.16,1.51,1.87,4.98,1.07,4.98-.18,0-.8-1.51-1.33-3.29h0Z"/>
    <path class="cls-9" d="M225.82,117.03l-6.13-19.28-5.78-5.78c-5.87-5.78-4.98-5.95,1.16-.18,1.78,1.69,3.29,2.93,3.29,2.75,0-.27-1.24-4.27-2.67-8.89-1.51-4.53-2.67-8.98-2.58-9.78,0-.71,1.51,3.29,3.38,8.89l3.29,10.22,1.07-4.89c3.38-15.37,4-17.86,4.35-17.42.27.18-.71,5.78-2.04,12.35l-2.49,12,6.04,19.2c3.38,10.66,5.87,19.46,5.69,19.64-.27.27-3.2-8.26-6.58-18.84h0Z"/>
    <path class="cls-9" d="M202.9,82.55c-1.96-1.69-3.11-3.11-2.58-3.11.44,0,2.4,1.42,4.35,3.11,1.87,1.69,3.11,3.02,2.58,3.02-.44,0-2.49-1.33-4.35-3.02Z"/>
  </g>
  <path class="cls-2" d="M238.27,171.15c-5.6-4.44-7.73-15.28-3.91-19.28l2.13-2.31-2.49-7.55c-1.33-4.18-2.31-7.73-2.13-7.91.18-.27,1.51,3.02,2.84,7.2l2.49,7.55,3.47-.53c6.84-1.16,11.37,4.98,11.46,15.28,0,4.89-.27,5.69-2.31,7.29-2.93,2.31-8.89,2.49-11.55.27h0ZM248.57,160.93c0-2.04-.53-4.71-1.16-5.95-1.16-2.31-3.91-3.11-3.47-.98.18.71.62,3.29,1.07,5.69.53,2.4,1.07,4.71,1.42,5.15.98,1.69,2.13-.36,2.13-3.91Z"/>
  <path class="cls-2" d="M227.34,121.12c-1.6-4.89-2.75-9.06-2.58-9.24.18-.27,1.69,3.64,3.29,8.53s2.75,9.06,2.58,9.24c-.18.27-1.69-3.64-3.29-8.53Z"/>
  <path class="cls-2" d="M210.18,88.68c-5.33-4.62-9.6-8.62-9.6-8.89,0-.53,3.29,2.13,12.35,10.13,3.02,2.67,5.42,4.44,5.42,4,0-.53-.8-3.2-1.78-6.04s-1.78-5.6-1.69-6.13c0-.53,1.16,2.22,2.58,6.13,2.31,6.58,2.49,6.93,3.11,4.44,1.07-4.44,1.33-4.62.89-.44-.36,2.22-.8,4.27-1.16,4.62-.36.36-4.89-3.2-10.13-7.82h0Z"/>
  <path class="cls-2" d="M222.09,86.1c0-.98.53-3.73,1.16-6.22.62-2.4,1.16-3.64,1.16-2.67s-.53,3.82-1.16,6.22c-.62,2.49-1.16,3.64-1.16,2.67Z"/>
  <g>
    <path class="cls-13" d="M432.53,310.4c-2.04-4-1.96-5.6.18-2.4,1.51,2.4,2.84,6.04,2.13,6.04-.27,0-1.33-1.6-2.31-3.64Z"/>
    <path class="cls-13" d="M435.46,301.87c-3.11-2.31-5.42-4.35-5.15-4.53.44-.44,9.78,5.78,11.29,7.55,1.78,2.22-.71.98-6.13-3.02h0Z"/>
    <path class="cls-13" d="M440.26,296.54c-2.84-.18-4.89-.71-4.62-1.16.53-.89,13.6-.09,15.55.98,1.33.8-.53.8-10.93.18Z"/>
    <path class="cls-13" d="M413.42,286.41c-1.96-1.42-3.73-3.11-3.91-3.64-.36-1.07,7.46,4.09,8.35,5.51.98,1.6-.89.89-4.44-1.87h0Z"/>
    <path class="cls-13" d="M399.2,276.28c-1.42-1.16-2.4-2.31-2.13-2.58.27-.27,1.87.71,3.55,2.13,3.64,3.11,2.4,3.55-1.42.44Z"/>
    <path class="cls-13" d="M383.03,264.9c-5.78-4.8-9.42-6.84-10.66-5.78-.89.71-1.16.36-1.16-1.78,0-3.91.8-5.51,2.84-5.51,1.51,0,1.78.44,1.24,2.67-.44,2.58-.09,3.02,5.69,7.29,3.47,2.49,6.22,4.62,6.22,4.8,0,.98-1.87.18-4.18-1.69Z"/>
    <path class="cls-13" d="M354.15,256.1c-3.11-3.02-3.11-4.27-.27-4.27,2.49,0,3.38,1.42,2.93,4.62l-.27,2.04-2.4-2.4Z"/>
    <path class="cls-13" d="M357.88,244.28c0-2.93.18-3.11,3.11-3.11,3.73,0,4.27,2.13.8,3.02-1.51.44-2.13,1.07-1.78,1.87.27.8-.09,1.33-.8,1.33-.89,0-1.33-.98-1.33-3.11Z"/>
    <path class="cls-13" d="M368.28,245.88c-.36-.27-.62-1.24-.62-2.13,0-1.96,2.75-1.33,4.98,1.07,1.42,1.6,1.42,1.69-1.16,1.69-1.42,0-2.93-.27-3.2-.62Z"/>
    <path class="cls-13" d="M265.9,164.93c-4.18-.89-7.11-5.51-8.09-12.35-.62-4.89.27-7.55,3.55-10.49l2.04-1.78-2.4-15.11c-1.33-8.26-3.11-20.08-4-26.22s-2.22-12.09-2.93-13.33-4.53-6.13-8.35-10.93c-3.91-4.8-6.93-8.89-6.75-9.15.27-.18,3.29,3.2,6.84,7.55,9.15,11.37,8.89,11.37,7.2.09-.8-5.33-1.24-9.51-.89-9.33s1.16,4.09,1.78,8.62c.62,4.53,1.42,8.8,1.78,9.42.36.71,2.22-3.11,4.53-9.51,2.13-5.87,4.18-10.75,4.53-10.75s-.62,3.29-2.13,7.38c-6.4,17.51-6.22,16.8-5.6,22.39.27,2.93,1.69,12.53,3.11,21.33,1.33,8.8,2.75,18.04,3.11,20.44.89,7.2,1.07,7.55,4,6.93,3.2-.62,6.58,1.33,8.26,4.89,3.02,5.78,2.49,15.2-.89,18.13-1.78,1.51-6.04,2.4-8.71,1.78h0ZM273.46,149.73c0-1.96-.36-3.82-.89-4.09-.53-.36-.89,1.07-.89,3.47,0,2.22.44,4.09.89,4.09.53,0,.89-1.6.89-3.47Z"/>
  </g>
  <g>
    <path class="cls-10" d="M430.84,306.49l-5.69-12-12.35-8.71c-6.75-4.71-13.95-9.86-16.08-11.29-23.99-17.15-23.02-16.53-24.62-15.11-.89.8-3.02,1.6-4.8,1.96-6.4.98-16.53-6.31-16.53-12.09,0-2.67,2.31-6.93,4.35-8.09,4.18-2.22,13.77.18,18.57,4.62,2.13,2.04,2.67,6.66,1.07,9.51-.71,1.42,1.07,2.93,12.17,10.84,7.2,5.07,15.64,11.11,18.84,13.42s9.15,6.49,13.24,9.24l7.29,4.98,12.53,1.16c6.84.62,12.71,1.33,13.06,1.69.27.36-1.42.44-3.82.18-10.84-1.16-19.46-1.51-18.66-.71.53.44,4.18,3.11,8.26,5.87,4.09,2.84,7.2,5.33,6.93,5.6-.27.27-3.73-1.96-7.82-4.8-8.44-6.04-10.04-7.11-9.42-5.95,2.13,3.64,9.6,20.35,9.42,20.97-.18.44-2.84-4.62-5.95-11.29h0ZM371.21,249.26c0-2.4-7.55-6.13-10.31-5.07-2.31.89-.98,2.4,3.64,4.09,5.33,1.87,6.66,2.04,6.66.98h0Z"/>
    <path class="cls-10" d="M310.6,165.55c-2.58-1.42-1.87-2.58,1.51-2.58,2.49,0,3.11.36,3.11,1.78,0,1.96-2.13,2.31-4.62.8Z"/>
    <path class="cls-10" d="M313.45,157.2c0-2.49.36-3.11,1.78-3.11,1.87,0,2.13.89,1.24,4.27-.89,3.2-3.02,2.4-3.02-1.16Z"/>
    <path class="cls-10" d="M319.22,158.53c1.87-2.04,2.93-10.13,1.51-11.02-.53-.36-1.42.27-1.96,1.24-1.42,2.75-2.67,2.13-2.67-1.33,0-2.75.27-3.11,2.22-3.11,1.24,0,2.22-.44,2.22-.98,0-1.51,2.75.98,3.55,3.2.44,1.24.27,1.96-.8,2.4-1.24.53-1.16.62.18.62,1.42.09,1.6.53,1.07,3.91-.8,4.71-1.07,5.07-3.2,5.07-.89,0-1.69.44-1.69.89,0,.53-.44.89-1.07.89-.53,0-.27-.8.62-1.78h0Z"/>
    <path class="cls-10" d="M305.27,157.02c-.53-2.49.18-4.71,1.6-4.71.8,0,1.24.98,1.24,3.11,0,3.29-2.13,4.44-2.84,1.6h0Z"/>
    <path class="cls-10" d="M314.96,136.31c.27-2.67.89-5.87,1.24-7.11.44-1.33.53-.09.18,3.11-.27,2.93-.8,6.13-1.24,7.11-.44,1.07-.53-.18-.18-3.11Z"/>
    <path class="cls-10" d="M318.51,111.43c.27-2.67.89-5.69,1.24-6.66.44-1.07.53.27.18,3.11-.27,2.67-.89,5.69-1.24,6.66-.44,1.07-.53-.27-.18-3.11Z"/>
    <path class="cls-10" d="M321.09,94.1c.36-2.4.71-4.62.89-4.8.71-.8.18,5.78-.62,7.46-.53,1.16-.62.36-.27-2.67Z"/>
    <path class="cls-10" d="M321.27,84.41c-.8-2.04-2.04-5.15-2.93-7.02-.8-1.96-1.07-3.2-.53-2.93.44.36,1.51,2.4,2.4,4.71l1.6,4.18,1.24-2.67,1.16-2.58-.44,2.93c-.27,1.51-.18,2.84.18,2.84.36-.09,2.84-3.02,5.51-6.66s5.24-6.58,5.69-6.66c.44,0,.36.53-.18,1.16-.44.53-3.47,4.53-6.58,8.71l-5.78,7.64-1.33-3.64h0Z"/>
    <path class="cls-10" d="M324.2,71.88c0-.98.36-2.58.8-3.55l.8-1.78v1.78c0,.98-.36,2.58-.8,3.55l-.8,1.78v-1.78Z"/>
    <path class="cls-10" d="M315.76,70.64c-1.16-1.78-2.22-5.51-1.51-5.07.44.27,1.24,1.69,1.69,3.2.89,2.58.8,3.55-.18,1.87h0Z"/>
  </g>
  <path class="cls-11" d="M293.45,512.93c1.78-45.77.53-156.85-2.67-235.76-1.42-33.59-1.51-34.12-4.98-34.21-4.09,0-10.04-8.35-12-16.8-2.4-10.04-1.33-19.73,2.67-25.24,3.73-5.07,7.2-6.4,16.88-6.4h8.71l3.38,3.73c1.78,2.04,3.82,5.6,4.44,7.82,1.51,5.51,1.6,20.35.09,25.59-1.69,5.87-6.66,10.84-11.55,11.64l-3.82.62.53,8.18c.8,11.64,2.13,42.3,3.38,78.82,1.24,35.01,1.51,181.2.36,192.22l-.71,6.84h-5.42l.71-17.06h0Z"/>
  <path class="cls-11" d="M158.94,469.91c-13.6-3.82-23.37-15.11-26.04-30.13-3.47-19.91,9.69-37.95,30.21-41.5,10.93-1.96,23.28,2.04,31.28,10.04,17.6,17.6,12.35,48.25-10.22,59.36-7.02,3.47-17.51,4.35-25.24,2.22h0ZM180.71,459.16c12.26-5.95,18.4-21.33,13.86-34.66-2.04-5.95-9.78-13.69-15.73-15.73-5.51-1.87-14.93-1.96-20.35-.09-5.78,1.96-12.35,8.09-14.84,13.86-2.58,5.95-2.84,15.2-.62,21.68,5.24,15.02,23.02,22.13,37.68,14.93h0Z"/>
  <path class="cls-11" d="M159.74,451.16c-3.02-1.51-5.51-3.64-7.02-5.95-2.13-3.2-2.4-4.44-2.4-10.75s.27-7.64,2.4-10.75c3.82-5.51,7.91-7.91,14.57-8.26,4.44-.27,6.4,0,9.69,1.6,13.95,6.75,14.04,27.82.18,34.3-6.13,2.84-11.46,2.75-17.42-.18h0ZM175.02,442.81c3.55-2.84,4.71-7.29,2.93-12-1.78-4.53-4.62-6.66-8.89-6.66-6.58,0-10.31,3.82-10.31,10.4.09,6.4,3.73,9.95,10.31,10.04,2.4,0,4.44-.62,5.95-1.78Z"/>
  <path class="cls-11" d="M454.21,243.48l-10.75-7.29-22.57-2.13c-12.44-1.16-23.37-2.4-24.35-2.75q-1.69-.71.09-.71c1.07-.09,12.26.98,24.88,2.22,21.51,2.13,23.19,2.13,26.04.8,1.6-.8,3.2-1.24,3.47-.98.27.27-.27.71-1.07,1.07-2.75,1.07-1.42,2.13,2.84,2.22,2.31,0,4.98.36,5.95.8,1.16.53-.53.62-4.62.27-3.55-.27-6.49-.27-6.49,0s4,3.11,8.89,6.4c8.35,5.6,10.84,7.64,9.15,7.46-.36,0-5.51-3.29-11.46-7.38h0Z"/>
  <path class="cls-11" d="M362.59,235.04c-5.78-2.67-7.91-8.09-5.15-13.42,1.87-3.55,4.18-4.62,10.04-4.53,9.78,0,14.4,3.11,14.4,9.6,0,1.96.53,2.93,1.6,3.2,1.33.36,1.33.44.09.53-.89,0-2.93,1.51-4.62,3.2-3.47,3.47-6.84,4.18-6.84,1.33,0-1.33.62-1.78,2.58-1.78,2.31,0,2.58-.36,3.2-4.09.71-5.24-1.07-8.35-4.89-8.35-1.51,0-2.67.44-2.67.98,0,.44.71.8,1.6.71,3.2-.27,4.62.09,4.62,1.42,0,1.07-1.16,1.33-4.89,1.33q-4.89,0-4.89-2.75c0-2.31-.27-2.67-1.51-2.13-.89.36-2.49.89-3.55,1.07-1.6.36-2.04,1.07-2.04,3.47,0,3.55,3.11,7.02,7.11,7.91,1.87.44,2.67,1.16,2.67,2.31,0,2.13-2.04,2.13-6.84,0h0Z"/>
  <path class="cls-11" d="M387.65,230.51c-1.51-.62-1.42-.8.89-.8,1.51,0,3.47.36,4.44.8,1.51.62,1.42.8-.89.8-1.42,0-3.47-.36-4.44-.8Z"/>
  <path class="cls-11" d="M453.86,231.13c0-.71,9.95-5.15,10.4-4.71.27.18-1.07,1.16-3.02,2.13-3.82,1.96-7.38,3.2-7.38,2.58h0Z"/>
  <path class="cls-11" d="M359.48,210.96c-2.67-1.69-1.78-2.67,2.4-2.67s8.62-1.51,11.82-4.35c1.96-1.78,2.4-3.29,1.42-5.78-.8-2.04-2.13-1.78-2.13.36,0,1.42-.62,1.78-3.11,1.78-2.04,0-3.11.44-3.11,1.24,0,1.33-2.67,2.31-6.4,2.31-2.22,0-2.49-.27-2.49-3.11,0-2.22.36-3.11,1.42-3.11.98,0,1.24-.53.8-1.78-.44-1.51.09-2.04,2.84-3.29,5.24-2.22,10.75-2.04,12.71.44.89,1.07,2.04,1.96,2.58,1.96s5.69-2.22,11.46-4.98c5.69-2.67,17.33-8.18,25.77-12.09,8.53-4,16-8.09,16.8-9.06.71-1.07,4.27-6.04,7.91-11.11s6.58-8.71,6.58-8.09-2.58,4.62-5.78,8.98c-3.2,4.35-6.04,8.53-6.31,9.24-.36.89,2.58-.09,8.09-2.67,4.8-2.22,8.89-3.82,9.06-3.64.27.27-3.47,2.31-8.26,4.62l-8.8,4.27,6.4.53c3.55.27,6.75.8,7.02,1.16.8.8-1.07.71-9.24-.18l-6.49-.8-17.95,8.44c-30.48,14.31-32.35,15.2-34.21,15.73-1.6.53-1.87,1.33-1.78,4.53.09,4.89-1.96,8.18-6.13,9.86-4.18,1.78-11.02,2.4-12.89,1.24h0ZM368.1,197.63c3.47-1.42,4.09-2.04,3.02-2.67-3.02-1.69-11.46,1.96-11.46,4.98,0,1.33.44,1.16,8.44-2.31Z"/>
  <path class="cls-11" d="M353.97,204.3c-.71-2.93.27-6.66,1.78-6.66.89,0,1.24,1.24,1.24,4.44,0,4.89-2.04,6.31-3.02,2.22Z"/>
  <path class="cls-11" d="M333.26,171.95c-3.55-2.22-4.44-6.4-3.02-13.06,1.78-7.91,5.69-11.37,11.37-10.13l2.93.71,1.96-6.58c.98-3.64,2.04-6.4,2.22-6.22.27.18-.44,3.2-1.51,6.66l-1.87,6.4,2.4,2.84c2.04,2.4,2.31,3.29,1.87,6.93-.53,4.53-3.11,10.4-5.42,12.26-2.49,2.04-7.82,2.13-10.93.18h0ZM333.89,159.06c0-.62.27-2.58.53-4.18.44-2.84.44-2.93-.89-1.33-1.6,1.96-1.96,6.75-.53,6.75.53,0,.89-.53.89-1.24h0Z"/>
  <path class="cls-11" d="M450.74,172.75c-1.51-.62-1.33-.8.89-.71,1.51,0,3.64.36,4.89.71,2.04.62,1.96.71-.89.71-1.69,0-3.91-.27-4.89-.71Z"/>
  <path class="cls-11" d="M349.08,135.07c-.18-1.33,4.71-16.88,4.98-16,.09.44-.89,4.44-2.31,8.8-1.42,4.44-2.67,7.64-2.67,7.2Z"/>
  <path class="cls-11" d="M354.86,115.07c.62-3.38,3.73-12.62,3.82-11.2,0,.53-.89,3.91-2.13,7.55s-1.96,5.33-1.69,3.64Z"/>
  <path class="cls-11" d="M359.66,96.86c0-1.16.27-2.31.71-2.67.36-.36,1.16-1.96,1.69-3.47l1.16-2.84-.53,2.93c-.27,1.51-.18,2.84.27,2.84s3.38-2.67,6.49-5.87c3.2-3.2,7.02-6.66,8.44-7.64,1.51-.98.09.71-3.11,3.73-3.2,2.93-7.91,7.55-10.4,10.13-4.09,4.18-4.71,4.53-4.71,2.84h0Z"/>
  <path class="cls-11" d="M363.3,86.55c0-.71.36-2.13.8-3.11.44-1.16.8-1.24.8-.44,0,.71-.36,2.13-.8,3.11-.44,1.16-.8,1.24-.8.44Z"/>
  <path class="cls-11" d="M355.75,78.9c-.89-3.64-1.42-6.84-1.24-7.11.27-.18,1.07,2.67,1.96,6.4.89,3.64,1.42,6.84,1.24,7.11-.27.18-1.07-2.67-1.96-6.4Z"/>
  <path class="cls-11" d="M365.34,78.99c.36-1.42,1.07-3.02,1.51-3.55.44-.44.36.53-.18,2.22-1.33,4-2.13,4.8-1.33,1.33Z"/>
  <g>
    <path class="cls-3" d="M310.07,165.19c-3.73-1.6-4.89-4.71-4.44-12.35.27-5.51.62-6.31,3.2-8.62,1.6-1.42,3.47-2.58,4.09-2.58.71,0,1.51-.89,1.69-1.96l.36-2.04.18,2.04c.09,1.33.62,1.96,1.96,1.96,5.07,0,8.35,4.98,7.38,11.37-.89,6.49-2.93,10.75-5.78,12.17-3.11,1.6-4.89,1.6-8.62,0h0ZM319.67,157.91c1.42-1.78,1.78-3.38,1.6-6.4-.44-6.04-2.04-5.42-3.73,1.42-.8,3.29-1.42,6.31-1.42,6.75,0,1.33,1.69.53,3.55-1.78h0Z"/>
    <path class="cls-3" d="M315.4,134.54c0-1.69.18-2.4.44-1.51.18.8.18,2.22,0,3.11-.27.8-.44.09-.44-1.6Z"/>
    <path class="cls-3" d="M317.53,119.87c.53-6.75,3.73-25.59,3.73-22.66,0,1.24-.89,8-2.04,15.11-1.24,7.11-1.96,10.49-1.69,7.55h0Z"/>
    <path class="cls-3" d="M321.98,86.01c-.27-.71-.18-2.04.27-2.84s1.07-4.09,1.42-7.29c.36-3.2.89-5.24,1.07-4.71.27.62,0,3.82-.53,7.11s-.8,6.13-.62,6.22c.18.18,3.47-3.91,7.29-8.98,3.91-5.15,7.38-9.42,7.73-9.42.44,0-1.6,2.93-4.35,6.49-2.75,3.47-6.4,8.26-8.09,10.66-1.69,2.31-3.2,4.18-3.38,4.18s-.53-.62-.8-1.42h0Z"/>
    <path class="cls-3" d="M316.91,73.48c-4.89-11.91-4.8-11.55-3.73-10.49,1.07,1.07,8.35,19.28,7.91,19.73-.18.18-2.04-4-4.18-9.24h0Z"/>
    <path class="cls-3" d="M325.18,67c0-1.69.18-2.4.44-1.51.18.8.18,2.22,0,3.11-.27.8-.44.09-.44-1.6Z"/>
  </g>
  <g>
    <path class="cls-8" d="M318.87,375.81c0-.44.53-1.87,1.24-3.11s1.24-1.78,1.24-1.33c0,.53-.53,1.87-1.24,3.11s-1.24,1.87-1.24,1.33Z"/>
    <path class="cls-8" d="M330.86,369.14c-.98-10.13-1.6-13.33-2.4-12.8-1.16.71-.98-.89.36-2.58.98-1.33,1.96-.36,8.44,8.62,4,5.6,7.29,10.49,7.29,10.84s-1.6-1.51-3.55-4.18-3.82-5.24-4.27-5.78c-.44-.44-1.96-2.58-3.29-4.62s-2.67-3.64-2.84-3.38c-.18.18.09,4.35.62,9.33.62,4.89.89,9.42.71,10.04-.27.62-.71-1.87-1.07-5.51h0Z"/>
    <path class="cls-8" d="M322.42,367.81c0-.44,1.16-3.11,2.58-5.78s2.58-4.44,2.58-4c0,.53-1.16,3.11-2.58,5.78s-2.58,4.53-2.58,4Z"/>
    <path class="cls-8" d="M328.11,343.81c-.36-4.27-.44-7.91-.18-8.09.18-.27.71,3.02,1.07,7.2.36,4.27.44,7.91.18,8.09-.18.27-.71-3.02-1.07-7.2Z"/>
    <path class="cls-8" d="M326.95,330.04c0-1.69.18-2.4.44-1.51.18.8.18,2.22,0,3.11-.27.8-.44.09-.44-1.6Z"/>
    <path class="cls-8" d="M325,313.16c-.62-6.4-.89-11.82-.71-12,.27-.27.98,4.8,1.6,11.11.62,6.4.89,11.82.71,12-.27.27-.98-4.8-1.6-11.11Z"/>
    <path class="cls-8" d="M323.4,297.16c-.18-2.84-.53-3.29-3.91-4.44-5.42-1.96-7.29-4.98-7.64-12.8-.36-6.31-.27-6.49,2.49-8.8,5.24-4.44,11.11-3.02,14.49,3.55,4.35,8.35,3.64,15.37-1.6,17.24-2.67.98-3.02,1.6-3.38,4.71-.27,3.55-.36,3.55-.44.53h0ZM328.38,284.1c.36-2.67-2.04-8-4.18-9.06-2.31-1.24-2.93-.09-1.51,2.75.71,1.24,1.69,3.73,2.31,5.6,1.16,3.38,2.93,3.73,3.38.71h0Z"/>
  </g>
  <g>
    <path class="cls-12" d="M286.79,160.93c-3.2-1.6-5.33-6.4-5.33-12.35,0-4.09.44-5.51,2.31-7.73,1.24-1.51,2.84-2.75,3.55-2.75.98,0,1.24-2.58,1.42-13.51l.18-13.6.27,13.15.36,13.06h2.67c1.87,0,3.55.89,5.42,2.67,2.58,2.67,2.67,2.93,2.31,9.86-.27,6.84-.44,7.29-3.2,9.78-3.11,2.75-6.31,3.29-9.95,1.42h0ZM297.1,148.4c.62-2.67.18-5.07-.98-5.07-1.16.09-1.69,7.2-.53,7.2.53,0,1.16-.98,1.51-2.13h0Z"/>
    <path class="cls-12" d="M287.94,81.04c-2.22-2.93-2.22-3.38.09-2.4,1.24.62,1.96,1.51,1.69,2.22-.53,1.51-.71,1.51-1.78.18Z"/>
    <path class="cls-12" d="M290.34,78.19c0-.89,4.53-8.53,5.07-8.53.27,0-.62,1.87-2.04,4.27-2.75,4.8-3.02,5.15-3.02,4.27h0Z"/>
    <path class="cls-12" d="M287.94,65.22c0-3.64.18-5.15.36-3.29.18,1.78.18,4.8,0,6.66-.18,1.78-.36.27-.36-3.38Z"/>
    <path class="cls-12" d="M278.26,65.04c-.36-.62-1.24-2.13-1.96-3.38-1.24-2.13-1.16-2.13.27-.44,1.78,2.13,3.29,4.89,2.75,4.89-.27,0-.71-.53-1.07-1.07h0Z"/>
  </g>
  <g>
    <path class="cls-5" d="M152.69,320.27c0-1.33,3.38-8.09,3.47-7.02,0,.36-.8,2.31-1.78,4.44s-1.69,3.29-1.69,2.58Z"/>
    <path class="cls-5" d="M156.24,311.82c0-.44.98-2.67,2.13-4.89,1.16-2.22,2.13-3.55,2.13-3.11,0,.53-.98,2.67-2.13,4.89-1.16,2.22-2.13,3.64-2.13,3.11Z"/>
    <path class="cls-5" d="M148.42,308.09c.36-.62,3.11-2.75,5.95-4.8,2.93-2.04,5.33-4.27,5.33-4.89,0-.71.71-1.24,1.6-1.24.8,0,3.29-1.42,5.42-3.11,2.13-1.69,4-3.11,4.18-3.11.98,0,0,.98-3.38,3.47-2.13,1.6-4.53,4.09-5.42,5.69-.89,1.6-1.42,2.13-1.16,1.33.62-2.13-.09-2.04-3.38.44-1.51,1.16-4.35,3.2-6.22,4.71-1.96,1.42-3.29,2.13-2.93,1.51h0Z"/>
    <path class="cls-5" d="M138.2,300.09c1.07-.18,2.67-.18,3.55,0,.8.27-.09.44-2.04.36-1.96,0-2.67-.18-1.51-.36Z"/>
    <path class="cls-5" d="M145.31,299.2c1.07-.18,2.84-.18,4,0,1.07.18.18.36-2.04.36s-3.11-.18-1.96-.36Z"/>
    <path class="cls-5" d="M153.31,298.32c1.07-.18,2.84-.18,4,0,1.07.18.18.36-2.04.36s-3.11-.18-1.96-.36Z"/>
    <path class="cls-5" d="M172.15,290.67c0-.18,9.24-7.29,20.53-15.82,17.51-13.06,20.44-15.55,19.91-17.15-.27-1.07-.71-2.84-.98-4.09-1.07-4.62,6.4-10.31,14.75-11.29,4-.44,4.53-.27,7.02,2.22,2.13,2.13,2.75,3.47,2.75,6.22,0,4.53-2.31,7.46-8.44,10.49-5.24,2.58-9.15,2.49-12.09-.18-1.42-1.24-3.11-.18-21.33,13.51-10.93,8.18-20.44,15.2-20.97,15.73-.62.44-1.16.62-1.16.36h0ZM219.34,249.71c2.4-.98,2.67-1.42,1.51-1.87-1.6-.62-5.15.89-5.15,2.22,0,1.16.09,1.16,3.64-.36Z"/>
  </g>
  <g>
    <path class="cls-6" d="M454.3,243.22c-6.66-4.62-10.93-7.02-13.33-7.38q-3.55-.53,1.42-.98c4.09-.27,4.89-.09,4.62.98-.18.8,1.42,2.49,4.35,4.44,9.69,6.4,14.31,9.78,13.51,9.69-.44,0-5.15-3.02-10.58-6.75h0Z"/>
    <path class="cls-6" d="M459.9,237c1.07-.18,2.84-.18,4,0,1.07.18.18.36-2.04.36s-3.11-.18-1.96-.36Z"/>
    <path class="cls-6" d="M364.72,235.4c-5.6-1.96-7.73-4.53-7.73-9.33,0-3.2.44-4.62,2.13-6.13,2.75-2.58,8.62-3.38,14.57-1.87,5.6,1.33,7.55,3.38,7.55,7.91q0,3.55,3.64,3.91l3.64.36-4.18.09c-3.29.18-4.27.53-4.71,1.96-1.24,4-8.35,5.51-14.93,3.11h0ZM376.54,221.71c0-1.07-3.2-1.78-5.33-1.24-3.02.8-1.96,2.04,1.78,2.04,1.96,0,3.55-.36,3.55-.8h0Z"/>
    <path class="cls-6" d="M449.23,236.11c1.07-.18,2.67-.18,3.55,0,.8.27-.09.44-2.04.36-1.96,0-2.67-.18-1.51-.36Z"/>
    <path class="cls-6" d="M430.57,234.33c1.07-.18,2.67-.18,3.55,0,.8.27-.09.44-2.04.36-1.96,0-2.67-.18-1.51-.36Z"/>
    <path class="cls-6" d="M420.8,233.44c1.07-.18,2.84-.18,4,0,1.07.18.18.36-2.04.36s-3.11-.18-1.96-.36Z"/>
    <path class="cls-6" d="M411.91,232.55c1.07-.18,2.84-.18,4,0,1.07.18.18.36-2.04.36s-3.11-.18-1.96-.36Z"/>
    <path class="cls-6" d="M403.02,231.67c1.07-.18,2.84-.18,4,0,1.07.18.18.36-2.04.36s-3.11-.18-1.96-.36Z"/>
    <path class="cls-6" d="M393.69,230.78c.8-.18,2.22-.18,3.11,0,.8.27.09.44-1.6.44s-2.4-.18-1.51-.44Z"/>
    <path class="cls-6" d="M459.19,228.29c3.2-1.69,6.22-3.02,6.66-3.02.53,0-1.69,1.33-4.89,3.02s-6.13,3.02-6.66,3.02c-.44,0,1.69-1.33,4.89-3.02Z"/>
  </g>
</svg>