<?xml version="1.0" encoding="UTF-8"?>
<svg id="Layer_1" data-name="Layer 1" xmlns="http://www.w3.org/2000/svg" viewBox="0 0 850 400">
  <defs>
    <style>
      .cls-1 {
        fill: #000;
      }

      .cls-1, .cls-2, .cls-3 {
        stroke-width: 0px;
      }

      .cls-2 {
        fill: #fff;
      }

      .cls-3 {
        fill: #008bd8;
      }
    </style>
  </defs>
  <g>
    <g>
      <path class="cls-3" d="M165.64,293.91c1.76-6.7,8.62-10.71,15.33-8.94,6.7,1.76,10.71,8.62,8.94,15.33-1.76,6.7-8.62,10.71-15.33,8.94-6.7-1.76-10.71-8.62-8.94-15.33Z"/>
      <path class="cls-1" d="M177.77,310.14c-1.09,0-2.21-.14-3.31-.43-3.37-.89-6.19-3.03-7.94-6.04-1.75-3.01-2.23-6.52-1.35-9.89.89-3.37,3.03-6.19,6.04-7.94,3.01-1.75,6.52-2.23,9.89-1.35,6.95,1.83,11.12,8.97,9.29,15.92-1.54,5.84-6.83,9.72-12.61,9.72ZM177.78,285.04c-5.35,0-10.24,3.59-11.66,8.99-1.69,6.43,2.16,13.04,8.59,14.73,3.11.82,6.36.38,9.14-1.25,2.78-1.62,4.76-4.23,5.58-7.35.82-3.11.38-6.36-1.25-9.14-1.62-2.78-4.23-4.76-7.35-5.58-1.02-.27-2.05-.4-3.06-.4Z"/>
    </g>
    <g>
      <path class="cls-1" d="M177.39,304.17c-.3,0-.6-.04-.89-.11-3.03-.8-3.85-2.72-3.88-2.81-.1-.25.02-.54.27-.64.25-.1.54.02.64.27.03.06.69,1.56,3.22,2.23.62.16,1.3.08,1.86-.22.43-.23.99-.7,1.23-1.61.49-1.84-.67-2.79-2.01-3.89-1.31-1.08-2.8-2.3-2.33-4.49.17-.8.8-1.61,1.65-2.13.83-.5,1.75-.66,2.59-.43,2.89.76,3.14,2.66,3.15,2.74.03.27-.16.51-.43.54-.27.03-.51-.16-.54-.43-.01-.07-.23-1.33-2.43-1.91-.58-.16-1.23-.05-1.82.32-.61.37-1.09.98-1.21,1.5-.34,1.61.74,2.5,1.99,3.53,1.39,1.15,2.98,2.45,2.33,4.9-.26.97-.86,1.76-1.71,2.22-.52.28-1.1.43-1.69.43Z"/>
      <path class="cls-1" d="M179.66,291.3s-.08,0-.12-.02c-.26-.07-.42-.34-.35-.6l.47-1.77c.07-.26.34-.42.6-.35.26.07.42.34.35.6l-.47,1.77c-.06.22-.26.36-.47.36Z"/>
      <path class="cls-1" d="M175.64,305.7s-.08,0-.12-.02c-.26-.07-.42-.34-.35-.6l.47-1.77c.07-.26.34-.42.6-.35.26.07.42.34.35.6l-.47,1.77c-.06.22-.26.36-.47.36Z"/>
    </g>
  </g>
  <g>
    <g>
      <path class="cls-1" d="M167.11,248.63c-4.68,0-9.1-1.79-12.47-5.05-3.44-3.33-5.38-7.81-5.46-12.6-.06-3.61.95-7.1,2.92-10.11.15-.23.45-.29.68-.14.23.15.29.45.14.68-1.86,2.84-2.82,6.15-2.76,9.56.07,4.53,1.91,8.76,5.16,11.91,3.25,3.15,7.53,4.84,12.07,4.77,9.35-.15,16.83-7.88,16.68-17.23-.15-9.35-7.89-16.84-17.23-16.68-3.37.06-6.62,1.1-9.38,3.01-.22.15-.53.1-.68-.12-.15-.22-.1-.53.12-.68,2.92-2.03,6.35-3.13,9.92-3.19.1,0,.2,0,.3,0,9.76,0,17.77,7.86,17.93,17.65.16,9.89-7.75,18.07-17.64,18.23-.1,0-.2,0-.3,0Z"/>
      <path class="cls-1" d="M167.11,259.46c-15.65,0-28.5-12.6-28.76-28.3-.11-6.48,1.9-12.63,5.8-17.79.16-.22.47-.26.69-.1.22.16.26.47.1.69-3.76,4.98-5.7,10.93-5.6,17.19.25,15.17,12.67,27.33,27.78,27.34.15,0,.31,0,.46,0,15.32-.25,27.58-12.92,27.33-28.24-.12-7.42-3.12-14.35-8.46-19.51-5.33-5.16-12.36-7.94-19.78-7.82-6.28.1-12.18,2.25-17.05,6.2-.21.17-.52.14-.69-.07-.17-.21-.14-.52.07-.69,5.04-4.09,11.14-6.31,17.65-6.42,7.67-.12,14.95,2.75,20.48,8.09,5.52,5.34,8.63,12.52,8.76,20.2.26,15.86-12.43,28.97-28.29,29.23-.16,0-.32,0-.48,0Z"/>
      <g>
        <path class="cls-3" d="M174.69,230.57c-.07-4.18-3.51-7.52-7.69-7.45-4.18.07-7.52,3.51-7.45,7.69s3.51,7.52,7.69,7.45c4.18-.07,7.52-3.51,7.45-7.69Z"/>
        <path class="cls-1" d="M167.12,238.75c-2.1,0-4.09-.8-5.6-2.27-1.55-1.5-2.42-3.51-2.45-5.66-.04-2.15.77-4.19,2.27-5.74,1.5-1.55,3.51-2.42,5.66-2.45,2.16-.03,4.19.77,5.74,2.27,1.55,1.5,2.42,3.51,2.45,5.66.04,2.15-.77,4.19-2.27,5.74-1.5,1.55-3.51,2.42-5.66,2.45-.04,0-.09,0-.13,0ZM167.12,223.61s-.08,0-.12,0c-1.89.03-3.66.8-4.97,2.16-1.32,1.36-2.02,3.15-1.99,5.04.06,3.9,3.29,7.03,7.2,6.97,1.89-.03,3.66-.8,4.97-2.16,1.32-1.36,2.02-3.15,1.99-5.04-.06-3.87-3.23-6.97-7.08-6.97Z"/>
      </g>
    </g>
    <path class="cls-1" d="M167.12,231.18c-.12,0-.25-.05-.34-.14l-31.86-30.84c-.19-.19-.2-.5-.01-.69.19-.19.5-.2.69-.01l31.86,30.84c.19.19.2.5.01.69-.1.1-.22.15-.35.15Z"/>
    <g>
      <polygon class="cls-1" points="143.16 207.62 135.2 199.92 127.89 200.78 135.85 208.49 143.16 207.62"/>
      <path class="cls-1" d="M135.85,208.98c-.13,0-.25-.05-.34-.14l-7.96-7.71c-.14-.13-.18-.33-.12-.51.06-.18.22-.31.41-.33l7.31-.86c.15-.02.29.03.4.13l7.96,7.71c.14.13.18.33.12.51-.06.18-.22.31-.41.33l-7.31.86s-.04,0-.06,0ZM128.97,201.15l7.05,6.83,6.05-.71-7.05-6.83-6.05.71Z"/>
    </g>
    <g>
      <polygon class="cls-1" points="143.22 207.56 135.26 199.85 135.82 192.59 143.78 200.29 143.22 207.56"/>
      <path class="cls-1" d="M143.22,208.05c-.12,0-.25-.05-.34-.14l-7.96-7.71c-.1-.1-.16-.24-.15-.39l.56-7.27c.01-.19.14-.35.31-.42.18-.07.38-.03.51.11l7.96,7.71c.1.1.16.24.15.39l-.56,7.27c-.01.19-.14.35-.31.42-.06.02-.12.03-.17.03ZM135.77,199.66l7.05,6.82.46-6-7.05-6.82-.46,6Z"/>
    </g>
  </g>
  <g>
    <g>
      <path class="cls-2" d="M572.92,281.4c.38-5.21,2.42-10.34,6.17-14.54,9.04-10.11,24.56-10.99,34.68-1.95,9.32,8.32,10.79,22.15,3.9,32.18l8.58,7.67c11.07-14.79,9.17-35.85-4.86-48.38-14.83-13.25-37.59-11.97-50.83,2.86-5.86,6.56-8.87,14.66-9.13,22.81l11.49-.65Z"/>
      <path class="cls-1" d="M626.25,305.24c-.12,0-.24-.04-.33-.12l-8.58-7.67c-.18-.16-.22-.44-.08-.64,6.82-9.94,5.18-23.5-3.82-31.54-9.9-8.84-25.14-7.98-33.99,1.91-3.56,3.99-5.66,8.92-6.05,14.25-.02.25-.22.44-.46.45l-11.49.65c-.14,0-.27-.04-.37-.14-.1-.1-.15-.23-.15-.37.27-8.54,3.56-16.75,9.26-23.12,6.49-7.27,15.43-11.57,25.16-12.12,9.73-.55,19.09,2.73,26.36,9.22,6.85,6.12,11.12,14.53,12,23.66.88,9.08-1.63,18.1-7.08,25.38-.08.11-.21.18-.34.19-.02,0-.03,0-.05,0ZM618.31,297l7.87,7.03c10.57-14.58,8.37-35.25-5.11-47.29-7.07-6.32-16.18-9.5-25.66-8.97-9.47.53-18.17,4.72-24.49,11.8-5.42,6.07-8.6,13.85-8.99,21.97l10.53-.59c.49-5.39,2.65-10.36,6.26-14.4,4.46-4.99,10.59-7.94,17.27-8.32,6.68-.38,13.11,1.87,18.1,6.33,9.26,8.27,11.04,22.15,4.22,32.46ZM572.92,281.4h0,0Z"/>
    </g>
    <g>
      <path class="cls-1" d="M613.46,301.8c-4.23,3.66-9.45,5.67-14.77,5.94l-.67,11.47c8.7-.15,17.31-3.43,24.02-9.74l-8.58-7.67Z"/>
      <path class="cls-1" d="M598.02,319.7c-.13,0-.26-.05-.35-.15-.09-.1-.14-.23-.14-.37l.67-11.47c.01-.25.21-.45.46-.46,5.32-.28,10.46-2.35,14.48-5.82.19-.16.46-.16.65,0l8.58,7.67c.1.09.16.22.16.36,0,.14-.05.27-.15.36-6.6,6.21-15.25,9.72-24.35,9.88h0ZM599.15,308.2l-.61,10.51c8.48-.27,16.53-3.53,22.78-9.23l-7.87-7.03c-4.02,3.36-9.06,5.39-14.3,5.76Z"/>
    </g>
    <g>
      <path class="cls-3" d="M592.38,307.25c-4.08-.85-8.01-2.74-11.34-5.72-4.22-3.77-6.82-8.66-7.78-13.82l-11.49.65c1.16,8.09,5.07,15.84,11.64,21.71,5.34,4.77,11.71,7.66,18.3,8.71l.67-11.52Z"/>
      <path class="cls-1" d="M591.71,319.26s-.05,0-.08,0c-6.9-1.1-13.31-4.15-18.54-8.82-6.39-5.71-10.59-13.53-11.8-22-.02-.14.02-.27.11-.38.09-.11.21-.17.35-.18l11.49-.65c.24-.01.46.16.51.4.98,5.28,3.61,9.97,7.62,13.55,3.15,2.81,6.99,4.75,11.11,5.61.24.05.4.27.39.51l-.67,11.52c0,.14-.07.27-.18.35-.09.07-.2.11-.31.11ZM562.34,288.81c1.28,8.05,5.32,15.44,11.41,20.89,4.96,4.43,11,7.36,17.51,8.5l.61-10.55c-4.14-.93-7.98-2.92-11.15-5.75-4.06-3.63-6.77-8.35-7.85-13.67l-10.53.59Z"/>
    </g>
  </g>
  <g>
    <g>
      <path class="cls-2" d="M574.2,122.74l-2.9-1.91c-3.67-2.42-8.65-.78-10.16,3.35l-1.19,3.26c-4.78-.62-3.96-.52-8.74-1.14l-.31-3.46c-.4-4.38-4.78-7.25-8.95-5.85l-3.29,1.1c-2.49-4.13-2.06-3.42-4.56-7.54l2.51-2.4c3.18-3.04,2.68-8.26-1.01-10.65l-2.91-1.89c1.67-4.52,1.39-3.74,3.06-8.27l3.44.46c4.36.59,8.13-3.05,7.7-7.43l-.34-3.46c4.58-1.51,3.79-1.25,8.37-2.76l1.78,2.98c2.26,3.78,7.45,4.45,10.61,1.39l2.49-2.42c4.04,2.64,3.34,2.18,7.38,4.82l-1.22,3.25c-1.54,4.12,1.16,8.6,5.53,9.16l3.44.44c.45,4.8.38,3.97.83,8.77l-3.3,1.08c-4.18,1.36-6,6.27-3.71,10.03l1.81,2.97c-3.47,3.35-2.87,2.77-6.34,6.12Z"/>
      <path class="cls-1" d="M559.95,127.94s-.04,0-.06,0l-8.74-1.14c-.23-.03-.4-.21-.42-.44l-.31-3.46c-.18-1.94-1.21-3.66-2.84-4.73-1.63-1.07-3.62-1.32-5.47-.7l-3.29,1.1c-.22.07-.46-.02-.57-.21l-4.56-7.54c-.12-.2-.09-.45.08-.61l2.51-2.4c1.41-1.35,2.11-3.23,1.92-5.17-.18-1.94-1.23-3.66-2.86-4.72l-2.91-1.89c-.19-.12-.27-.37-.19-.58l3.06-8.27c.08-.21.3-.35.52-.32l3.44.46c1.93.26,3.84-.37,5.24-1.72,1.4-1.35,2.09-3.24,1.9-5.18l-.34-3.46c-.02-.23.12-.44.33-.51l8.37-2.76c.22-.07.46.02.57.21l1.78,2.98c1,1.67,2.68,2.77,4.61,3.03,1.93.25,3.84-.38,5.23-1.74l2.49-2.42c.16-.16.42-.18.61-.06l7.38,4.82c.19.13.27.37.19.58l-1.22,3.25c-.68,1.82-.5,3.82.51,5.49,1.01,1.67,2.69,2.76,4.62,3.01l3.44.44c.23.03.4.21.43.44l.83,8.77c.02.23-.12.44-.34.51l-3.3,1.07c-1.85.6-3.3,2-3.98,3.82-.68,1.83-.48,3.83.53,5.49l1.81,2.97c.12.2.09.45-.08.61l-6.34,6.12c-.17.16-.42.18-.61.06l-2.9-1.91c-1.63-1.07-3.62-1.34-5.47-.73-1.85.61-3.29,2.01-3.96,3.84l-1.19,3.26c-.07.2-.26.32-.46.32ZM551.66,125.87l7.96,1.04,1.06-2.89c.77-2.11,2.44-3.73,4.57-4.43,2.14-.7,4.44-.4,6.31.84l2.57,1.7,5.78-5.58-1.6-2.63c-1.17-1.92-1.39-4.23-.61-6.34.78-2.11,2.45-3.72,4.59-4.41l2.93-.95-.76-7.99-3.06-.39c-2.23-.28-4.18-1.55-5.34-3.47-1.16-1.92-1.38-4.24-.59-6.34l1.08-2.88-6.72-4.39-2.21,2.15c-1.61,1.57-3.81,2.3-6.04,2.01-2.23-.29-4.17-1.56-5.32-3.49l-1.58-2.64-7.62,2.52.3,3.07c.22,2.24-.58,4.42-2.2,5.98-1.62,1.56-3.82,2.29-6.05,1.98l-3.05-.41-2.79,7.53,2.59,1.67c1.89,1.22,3.09,3.21,3.3,5.45.21,2.24-.6,4.41-2.22,5.97l-2.22,2.13,4.15,6.87,2.92-.98c2.13-.71,4.43-.42,6.32.81s3.08,3.22,3.28,5.46l.28,3.07Z"/>
    </g>
    <g>
      <circle class="cls-1" cx="559.21" cy="100.81" r="12.42" transform="translate(92.51 424.95) rotate(-45)"/>
      <path class="cls-1" d="M559.21,113.71c-7.12,0-12.91-5.79-12.91-12.91s5.79-12.91,12.91-12.91,12.91,5.79,12.91,12.91-5.79,12.91-12.91,12.91ZM559.21,88.88c-6.58,0-11.93,5.35-11.93,11.93s5.35,11.93,11.93,11.93,11.93-5.35,11.93-11.93-5.35-11.93-11.93-11.93Z"/>
    </g>
    <g>
      <circle class="cls-2" cx="559.21" cy="100.81" r="8.08" transform="translate(92.51 424.95) rotate(-45)"/>
      <path class="cls-1" d="M559.21,109.38c-4.73,0-8.57-3.84-8.57-8.57s3.84-8.57,8.57-8.57,8.57,3.84,8.57,8.57-3.84,8.57-8.57,8.57ZM559.21,93.22c-4.19,0-7.59,3.41-7.59,7.59s3.41,7.59,7.59,7.59,7.59-3.41,7.59-7.59-3.41-7.59-7.59-7.59Z"/>
    </g>
  </g>
  <g>
    <g>
      <path class="cls-2" d="M331.61,351.6l-2.1-1.38c-2.66-1.75-6.27-.57-7.36,2.43l-.86,2.36c-3.46-.45-2.87-.37-6.33-.83l-.23-2.51c-.29-3.18-3.46-5.25-6.49-4.24l-2.39.8c-1.81-2.99-1.5-2.48-3.3-5.47l1.82-1.74c2.3-2.21,1.95-5.98-.73-7.72l-2.11-1.37c1.21-3.28,1-2.71,2.22-5.99l2.49.34c3.16.43,5.89-2.21,5.58-5.38l-.25-2.5c3.32-1.1,2.75-.91,6.06-2l1.29,2.16c1.64,2.74,5.4,3.23,7.69,1l1.8-1.75c2.92,1.91,2.42,1.58,5.35,3.49l-.88,2.36c-1.12,2.99.84,6.23,4.01,6.64l2.5.32c.33,3.48.27,2.88.6,6.36l-2.39.78c-3.03.99-4.35,4.55-2.69,7.27l1.31,2.15c-2.51,2.43-2.08,2.01-4.59,4.43Z"/>
      <path class="cls-1" d="M321.28,355.5s-.04,0-.06,0l-6.33-.83c-.23-.03-.4-.21-.42-.44l-.23-2.51c-.12-1.36-.85-2.58-2-3.32-1.15-.75-2.55-.93-3.85-.5l-2.39.8c-.22.07-.46-.01-.57-.21l-3.3-5.47c-.12-.2-.08-.45.08-.61l1.82-1.74c.99-.95,1.48-2.27,1.35-3.64-.13-1.36-.86-2.57-2.01-3.32l-2.11-1.37c-.19-.12-.27-.37-.19-.58l2.22-5.99c.08-.22.3-.35.52-.32l2.49.34c1.36.18,2.7-.26,3.69-1.21.99-.95,1.47-2.28,1.34-3.64l-.25-2.5c-.02-.23.12-.44.33-.51l6.06-2c.22-.07.46.02.57.21l1.29,2.16c.7,1.18,1.89,1.95,3.24,2.13,1.36.18,2.7-.27,3.68-1.22l1.8-1.75c.16-.16.42-.18.61-.06l5.35,3.49c.19.13.27.37.19.58l-.88,2.36c-.48,1.28-.35,2.69.36,3.86.71,1.17,1.89,1.94,3.25,2.12l2.5.32c.23.03.4.21.43.44l.6,6.36c.02.23-.12.44-.34.51l-2.39.78c-1.3.42-2.32,1.4-2.8,2.69-.48,1.28-.34,2.69.37,3.86l1.31,2.15c.12.2.09.45-.08.61l-4.59,4.43c-.17.16-.42.18-.61.06l-2.1-1.38c-1.14-.75-2.54-.94-3.85-.51-1.3.43-2.32,1.41-2.79,2.7l-.86,2.36c-.07.19-.26.32-.46.32ZM315.4,353.75l5.55.73.73-2c.57-1.57,1.81-2.77,3.4-3.29,1.59-.52,3.3-.3,4.69.62l1.77,1.17,4.03-3.89-1.11-1.81c-.87-1.43-1.04-3.14-.46-4.71.58-1.57,1.82-2.76,3.41-3.28l2.02-.66-.53-5.58-2.11-.27c-1.66-.21-3.1-1.15-3.97-2.58-.86-1.43-1.02-3.15-.44-4.71l.74-1.99-4.69-3.06-1.52,1.48c-1.2,1.17-2.83,1.71-4.49,1.49-1.66-.22-3.1-1.16-3.96-2.6l-1.09-1.82-5.32,1.76.21,2.11c.16,1.66-.43,3.28-1.63,4.44-1.2,1.16-2.84,1.7-4.5,1.47l-2.11-.28-1.94,5.25,1.78,1.15c1.4.91,2.3,2.38,2.45,4.05.16,1.66-.44,3.28-1.65,4.43l-1.53,1.47,2.9,4.8,2.01-.67c1.58-.53,3.29-.31,4.69.6,1.4.91,2.29,2.39,2.44,4.06l.19,2.12Z"/>
    </g>
    <g>
      <circle class="cls-2" cx="320.75" cy="335.71" r="7.19"/>
      <path class="cls-1" d="M320.75,343.39c-4.23,0-7.68-3.45-7.68-7.68s3.45-7.68,7.68-7.68,7.68,3.45,7.68,7.68-3.45,7.68-7.68,7.68ZM320.75,329.01c-3.69,0-6.7,3.01-6.7,6.7s3.01,6.7,6.7,6.7,6.7-3.01,6.7-6.7-3.01-6.7-6.7-6.7Z"/>
    </g>
  </g>
  <g>
    <g>
      <rect class="cls-1" x="456.18" y="135.31" width="10.8" height="5.03" transform="translate(-10.14 40.2) rotate(-4.93)"/>
      <path class="cls-1" d="M467.4,140.44c-.05.02-.11.03-.16.04l-10.76.93c-.16.01-.32-.04-.45-.14-.13-.11-.2-.26-.22-.42l-.43-5.01c-.03-.34.22-.64.56-.67l10.76-.93c.16-.01.32.04.45.14.13.11.2.26.22.42l.43,5.01c.02.28-.15.54-.4.63ZM456.98,140.13l9.53-.82-.33-3.78-9.53.82.33,3.78Z"/>
    </g>
    <g>
      <path class="cls-2" d="M484.55,83.72c-1.33-15.37-15.04-26.7-30.46-25-14.45,1.59-25.28,14.37-24.46,28.89.44,7.94,4.18,14.86,9.78,19.56,6.14,5.15,10.73,8.47,11.42,16.46l18.92-1.63c-.68-7.89,3.09-11.96,8.25-17.96,4.66-5.42,7.22-12.63,6.56-20.32Z"/>
      <path class="cls-1" d="M469.96,122.57c-.05.02-.11.03-.16.04l-18.92,1.63c-.34.03-.64-.22-.67-.56-.62-7.21-4.57-10.51-10.03-15.06-.38-.32-.77-.64-1.17-.98-6.01-5.05-9.56-12.15-10-20-.4-7.18,1.96-14.18,6.65-19.72,4.69-5.54,11.21-9.02,18.36-9.81,7.61-.84,15.05,1.37,20.96,6.22,5.91,4.85,9.53,11.72,10.18,19.34h0c.66,7.61-1.72,14.98-6.7,20.77l-.52.6c-4.95,5.74-8.22,9.54-7.58,16.9.01.16-.04.32-.14.45-.07.08-.16.14-.26.18ZM451.39,122.96l17.7-1.53c-.44-7.48,3.08-11.58,7.92-17.2l.52-.6c4.76-5.54,7.04-12.59,6.41-19.86-.63-7.28-4.09-13.85-9.74-18.49-5.65-4.64-12.77-6.75-20.04-5.95-14.21,1.56-24.71,13.97-23.91,28.24.42,7.51,3.82,14.3,9.57,19.12.4.33.78.66,1.17.97,5.33,4.45,9.57,7.98,10.41,15.29Z"/>
    </g>
    <g>
      <path class="cls-3" d="M449.42,127.59l-.76-8.83,22.39-1.93.76,8.83c.53,6.18-1.88,10.97-10.23,12.16h0c-6.18.53-11.16-1.7-12.16-10.23Z"/>
      <path class="cls-1" d="M466.63,137.67c-.77.29-1.58.47-2.44.55l-5.11.44c-2.47.21-4.88-.55-6.78-2.15-1.9-1.6-3.06-3.84-3.28-6.31h0l-.98-11.38c-.03-.34.22-.64.56-.67l22.39-1.93c.34-.03.64.22.67.56l.98,11.38c.37,4.25-2.2,8.09-6.02,9.51ZM450.26,130.1h0c.19,2.14,1.19,4.09,2.84,5.47,1.65,1.38,3.73,2.05,5.88,1.86l5.11-.44c4.43-.38,7.72-4.29,7.33-8.72l-.93-10.77-21.16,1.83.93,10.77Z"/>
    </g>
    <path class="cls-1" d="M468.91,121.29s-.04.01-.05.01l-17.27,1.49c-.11,0-.21-.07-.22-.19,0-.11.07-.21.19-.22l17.27-1.49c.11,0,.21.07.22.19,0,.09-.05.18-.13.21Z"/>
    <path class="cls-1" d="M466.62,94.76s-.04.01-.05.01l-17.27,1.49c-.11,0-.21-.07-.22-.19-.01-.11.07-.21.19-.22l17.27-1.49c.11,0,.21.07.22.19,0,.09-.05.18-.13.21Z"/>
    <path class="cls-1" d="M454.01,48.16c-.05.02-.11.03-.16.04-.34.03-.64-.22-.67-.56l-.92-10.62c-.03-.34.22-.64.56-.67.34-.03.64.22.67.56l.92,10.62c.02.28-.15.54-.4.63Z"/>
    <path class="cls-1" d="M484.72,55.93c-.2.07-.44.04-.61-.11-.26-.22-.29-.61-.08-.87l6.86-8.16c.22-.26.61-.29.87-.08.26.22.29.61.08.87l-6.86,8.16c-.07.08-.16.15-.26.18Z"/>
    <path class="cls-1" d="M508.7,80.29c-.05.02-.11.03-.16.04l-10.62.92c-.34.03-.64-.22-.67-.56-.03-.34.22-.64.56-.67l10.62-.92c.34-.03.64.22.67.56.02.28-.15.54-.4.63Z"/>
    <path class="cls-1" d="M426.75,60.94c-.2.07-.44.04-.61-.11l-8.16-6.86c-.26-.22-.29-.61-.08-.87.22-.26.61-.29.87-.07l8.16,6.86c.26.22.29.61.08.87-.07.08-.16.15-.26.18Z"/>
    <path class="cls-1" d="M417.92,88.12c-.05.02-.11.03-.16.04l-10.62.92c-.34.03-.64-.22-.67-.56-.03-.34.22-.64.56-.67l10.62-.92c.34-.03.64.22.67.56.02.28-.15.54-.4.63Z"/>
    <g>
      <path class="cls-1" d="M456.04,118.21s-.09.03-.14.03c-.34.04-.65-.19-.69-.53-.03-.19-2.63-19.55-12.29-26.97-.27-.21-.32-.59-.11-.86.21-.27.59-.32.86-.11,10.08,7.74,12.66,26.98,12.77,27.8.04.29-.13.56-.4.66Z"/>
      <path class="cls-1" d="M464.02,117.52c-.06.02-.12.04-.19.04-.34.01-.63-.25-.64-.59-.04-.82-.79-20.22,7.82-29.57.23-.25.62-.27.87-.04.25.23.27.62.04.87-8.25,8.97-7.5,28.49-7.49,28.68.01.27-.16.51-.4.61Z"/>
    </g>
    <path class="cls-1" d="M471.66,88.18c-.05.02-.11.03-.16.04-1.44.12-2.26-.6-2.91-1.18-.6-.53-1.08-.95-1.99-.87-.91.08-1.31.57-1.81,1.2-.55.68-1.23,1.54-2.67,1.66-1.44.12-2.26-.6-2.91-1.18-.6-.53-1.08-.95-1.99-.87-.91.08-1.31.58-1.81,1.2-.55.68-1.23,1.54-2.67,1.66-1.44.12-2.26-.6-2.92-1.18-.61-.53-1.08-.95-1.99-.88-.91.08-1.31.58-1.81,1.2-.55.68-1.23,1.54-2.67,1.66-.34.03-.64-.22-.67-.56-.03-.34.22-.64.56-.67.91-.08,1.31-.58,1.81-1.2.55-.68,1.23-1.54,2.67-1.66,1.44-.12,2.26.6,2.92,1.18.6.53,1.08.95,1.99.88.91-.08,1.31-.58,1.81-1.2.55-.68,1.23-1.54,2.67-1.66,1.44-.12,2.26.6,2.91,1.18.6.53,1.08.95,1.99.87.91-.08,1.31-.57,1.81-1.2.55-.68,1.23-1.54,2.67-1.66,1.44-.12,2.26.6,2.91,1.18.6.53,1.08.95,1.99.88.34-.03.64.22.67.56.02.28-.15.54-.4.63Z"/>
  </g>
  <g>
    <g>
      <g>
        <g>
          <polygon class="cls-1" points="245.13 213.02 236.42 206.48 234.41 162.18 252.91 187.58 245.13 213.02"/>
          <path class="cls-1" d="M245.13,213.5c-.1,0-.21-.03-.29-.1l-8.71-6.53c-.12-.09-.19-.22-.2-.37l-2.01-44.31c0-.22.12-.41.33-.48.2-.07.43,0,.56.17l18.5,25.4c.09.12.12.28.07.43l-7.78,25.43c-.05.15-.16.27-.32.32-.05.02-.1.02-.15.02ZM236.9,206.23l7.97,5.98,7.51-24.53-17.4-23.89,1.92,42.45Z"/>
        </g>
        <g>
          <polygon class="cls-1" points="295.18 176.56 291.64 166.27 250.09 150.76 268.59 176.17 295.18 176.56"/>
          <path class="cls-1" d="M295.18,177.05h0l-26.6-.4c-.15,0-.3-.08-.39-.2l-18.5-25.4c-.13-.17-.12-.41,0-.58.13-.17.36-.24.56-.16l41.55,15.51c.14.05.24.16.29.3l3.54,10.29c.05.15.03.32-.07.45-.09.13-.24.2-.4.2ZM268.84,175.68l25.65.39-3.24-9.42-39.81-14.86,17.4,23.89Z"/>
        </g>
      </g>
      <g>
        <path class="cls-3" d="M251.86,193.07l-33.71-38.44c-13.69-15.61-20.09-35.46-16.96-54.57l.1.02c18.52,3.35,35.62,14.67,45.94,31.92l26.85,44.9-22.22,16.18Z"/>
        <path class="cls-1" d="M251.86,193.55c-.14,0-.27-.06-.37-.17l-33.71-38.44c-13.97-15.93-20.19-35.97-17.08-54.97.02-.13.09-.24.2-.32.11-.08.24-.11.37-.08l.1.02c19.28,3.49,36.14,15.21,46.27,32.15l26.85,44.9c.13.22.07.5-.13.65l-22.22,16.18c-.09.06-.19.09-.29.09ZM201.59,100.62c-2.88,18.57,3.27,38.11,16.92,53.68l33.41,38.11,21.49-15.65-26.62-44.51c-9.92-16.58-26.38-28.08-45.21-31.62Z"/>
      </g>
      <g>
        <path class="cls-2" d="M222,141.25c-2.41-3.31-1.68-7.95,1.63-10.36s7.95-1.68,10.36,1.63,1.68,7.95-1.63,10.36-7.95,1.68-10.36-1.63Z"/>
        <path class="cls-1" d="M228,144.79c-2.44,0-4.85-1.13-6.4-3.25-2.57-3.52-1.79-8.48,1.74-11.04,1.71-1.24,3.8-1.75,5.88-1.42,2.09.33,3.92,1.45,5.16,3.16,2.57,3.52,1.79,8.48-1.74,11.04-1.4,1.02-3.03,1.51-4.64,1.51ZM227.98,129.96c-1.45,0-2.86.46-4.06,1.33-3.09,2.25-3.77,6.59-1.52,9.68h0c2.25,3.09,6.59,3.77,9.68,1.52,3.09-2.25,3.77-6.59,1.52-9.68-1.09-1.5-2.69-2.48-4.52-2.76-.36-.06-.73-.09-1.09-.09Z"/>
      </g>
      <g>
        <rect class="cls-2" x="253.71" y="184.31" width="22.9" height="7.9" transform="translate(-60.01 192.17) rotate(-36.06)"/>
        <path class="cls-1" d="M258.23,198.69c-.15,0-.3-.07-.4-.2l-4.65-6.39c-.08-.1-.11-.24-.09-.36.02-.13.09-.24.2-.32l18.51-13.48c.1-.08.24-.11.36-.09.13.02.24.09.32.2l4.65,6.39c.16.22.11.52-.11.68l-18.51,13.48c-.09.06-.19.09-.29.09ZM254.26,191.92l4.08,5.6,17.72-12.91-4.08-5.6-17.72,12.91Z"/>
      </g>
      <path class="cls-1" d="M203.77,130.15c-.05,0-.1-.02-.13-.07-.05-.07-.04-.17.04-.23l25.19-18.35c.07-.05.17-.04.23.04.05.07.04.17-.04.23l-25.19,18.35s-.06.03-.1.03Z"/>
    </g>
    <path class="cls-1" d="M272.74,225.52c-.24,0-.45-.18-.48-.42-.78-5.85-2.33-11.57-4.61-17.01-.1-.25.01-.54.26-.64.25-.11.54.01.64.26,2.31,5.52,3.89,11.32,4.68,17.26.04.27-.15.51-.42.55-.02,0-.04,0-.07,0Z"/>
    <path class="cls-1" d="M266.11,204.67c-.16,0-.32-.08-.42-.23l-2.12-3.4c-.14-.23-.07-.53.16-.67.23-.14.53-.07.67.16l2.12,3.4c.14.23.07.53-.16.67-.08.05-.17.07-.26.07Z"/>
    <path class="cls-1" d="M274.55,239.93c-.13,0-.25-.05-.35-.14-1.07-1.07-1.73-2.67-1.87-4.52-.12-1.61.13-3.2.37-4.74.04-.27.3-.45.56-.41.27.04.45.29.41.56-.24,1.48-.48,3.01-.36,4.51.12,1.61.69,2.99,1.59,3.9.19.19.19.5,0,.69-.1.09-.22.14-.35.14Z"/>
    <path class="cls-1" d="M287.04,207.86c-.13,0-.26-.05-.35-.15-4.23-4.44-8.14-9.25-11.63-14.29-.15-.22-.1-.53.12-.68.22-.15.53-.1.68.12,3.46,5,7.34,9.77,11.53,14.17.19.2.18.51-.02.69-.09.09-.22.13-.34.13Z"/>
    <path class="cls-1" d="M296.2,212.68c-.06,0-.13-.01-.19-.04l-4.46-1.91c-.25-.11-.36-.39-.26-.64.11-.25.39-.36.64-.26l4.46,1.91c.25.11.36.39.26.64-.08.19-.26.3-.45.3Z"/>
    <path class="cls-1" d="M292.94,280.31c-.36,0-.73-.02-1.09-.05-6.43-.57-11.89-6.14-12.54-12.5-2.82,3.31-7.57,4.94-11.81,3.94-4.69-1.11-8.49-5.4-9.02-10.19-.69-6.13,3.36-11.63,7.84-16.65.18-.2.49-.22.69-.04.2.18.22.49.04.69-4.33,4.86-8.24,10.14-7.6,15.89.49,4.4,3.97,8.33,8.28,9.35,4.3,1.02,9.18-.93,11.6-4.63.12-.18.34-.26.55-.2.21.06.35.26.35.47-.05,6.32,5.42,12.35,11.72,12.9,6.3.56,12.74-4.43,13.79-10.66.04-.25.26-.41.51-.41,4.37.23,8.75-1.77,11.44-5.22,2.69-3.45,3.56-8.19,2.26-12.37-.08-.26.06-.53.32-.61.26-.08.53.06.61.32,1.39,4.48.46,9.56-2.43,13.26-2.79,3.59-7.3,5.71-11.83,5.61-1.28,6.26-7.31,11.09-13.67,11.09Z"/>
    <path class="cls-1" d="M328.02,225.15c-.17,0-.33-.09-.43-.25-.13-.23-.05-.53.18-.67,3.25-1.86,4.94-6.13,3.86-9.71-1.09-3.58-4.86-6.18-8.6-5.93-.82.06-2.07.14-2.59-.83-.29-.55-.16-1.17-.07-1.62.72-3.38.5-5.96-.65-7.88-1.54-2.57-4.97-3.93-8.34-3.32-3.64.66-6.4,3.2-8.07,5.21-.17.21-.48.24-.69.06-.21-.17-.24-.48-.06-.69,1.78-2.14,4.72-4.83,8.65-5.54,3.76-.69,7.61.87,9.36,3.78,1.29,2.15,1.54,4.95.77,8.59-.07.34-.15.72-.03.96.21.39.9.37,1.66.32,4.17-.29,8.39,2.62,9.6,6.62,1.21,4-.68,8.76-4.31,10.84-.08.04-.16.06-.24.06Z"/>
    <path class="cls-1" d="M283.46,221.31c-.16,0-.32-.08-.42-.23-4.36-6.95-8.59-14.11-12.57-21.28-.13-.24-.05-.53.19-.67.24-.13.53-.05.67.19,3.97,7.16,8.19,14.3,12.54,21.23.14.23.07.53-.15.67-.08.05-.17.07-.26.07Z"/>
    <path class="cls-1" d="M290.58,232.14c-.16,0-.31-.08-.41-.22l-4.14-6.19c-.15-.23-.09-.53.13-.68.22-.15.53-.09.68.13l4.14,6.19c.15.22.09.53-.13.68-.08.06-.18.08-.27.08Z"/>
  </g>
  <path class="cls-1" d="M148.6,165.08c-1.87,0-3.4-1.52-3.4-3.4s1.52-3.4,3.4-3.4,3.4,1.52,3.4,3.4-1.52,3.4-3.4,3.4ZM148.6,159.26c-1.33,0-2.42,1.09-2.42,2.42s1.09,2.42,2.42,2.42,2.42-1.09,2.42-2.42-1.09-2.42-2.42-2.42Z"/>
  <path class="cls-1" d="M733.2,203.94c-1.87,0-3.4-1.52-3.4-3.4s1.52-3.4,3.4-3.4,3.4,1.52,3.4,3.4-1.52,3.4-3.4,3.4ZM733.2,198.12c-1.33,0-2.42,1.09-2.42,2.42s1.09,2.42,2.42,2.42,2.42-1.09,2.42-2.42-1.09-2.42-2.42-2.42Z"/>
  <path class="cls-1" d="M453.07,351.23c-1.87,0-3.4-1.52-3.4-3.4s1.52-3.4,3.4-3.4,3.4,1.52,3.4,3.4-1.52,3.4-3.4,3.4ZM453.07,345.42c-1.33,0-2.42,1.09-2.42,2.42s1.09,2.42,2.42,2.42,2.42-1.09,2.42-2.42-1.09-2.42-2.42-2.42Z"/>
  <path class="cls-1" d="M377.2,260.03c-1.87,0-3.4-1.52-3.4-3.4s1.52-3.4,3.4-3.4,3.4,1.52,3.4,3.4-1.52,3.4-3.4,3.4ZM377.2,254.21c-1.33,0-2.42,1.09-2.42,2.42s1.09,2.42,2.42,2.42,2.42-1.09,2.42-2.42-1.09-2.42-2.42-2.42Z"/>
  <path class="cls-1" d="M396.5,108.77c-3,0-5.45-2.44-5.45-5.45s2.44-5.45,5.45-5.45,5.45,2.44,5.45,5.45-2.44,5.45-5.45,5.45ZM396.5,98.85c-2.46,0-4.47,2.01-4.47,4.47s2,4.47,4.47,4.47,4.47-2,4.47-4.47-2-4.47-4.47-4.47Z"/>
  <path class="cls-1" d="M671.06,268.26c-.19,0-.37-.11-.45-.3-.1-.25.01-.54.26-.64l12.26-5.11,2.26-13.65c.04-.23.23-.4.46-.41l13.73-.61,8.9-19.23c.11-.25.4-.35.65-.24.25.11.35.4.24.65l-9.03,19.5c-.08.17-.24.28-.42.28l-13.63.61-2.24,13.52c-.03.17-.14.31-.29.37l-12.51,5.21c-.06.03-.13.04-.19.04Z"/>
  <path class="cls-1" d="M232.07,350.9s-.09,0-.14-.02c-.26-.08-.41-.35-.33-.61l7.47-25.64c.07-.26.34-.41.6-.34l16.66,4.52,7.86-15.49c.08-.15.23-.25.39-.27l16.97-1.47c.27-.02.51.18.53.45.02.27-.18.51-.45.53l-16.7,1.44-7.92,15.6c-.1.21-.34.31-.56.25l-16.58-4.5-7.34,25.17c-.06.21-.26.35-.47.35Z"/>
  <g>
    <rect class="cls-1" x="596.53" y="207.49" width="7.31" height="7.31" transform="translate(325.09 -362.55) rotate(45)"/>
    <path class="cls-1" d="M600.18,216.8c-.13,0-.25-.05-.35-.14l-5.17-5.17c-.09-.09-.14-.22-.14-.35s.05-.25.14-.35l5.17-5.17c.09-.09.22-.14.35-.14h0c.13,0,.25.05.35.14l5.17,5.17c.19.19.19.5,0,.69l-5.17,5.17c-.1.1-.22.14-.35.14ZM595.7,211.14l4.48,4.48,4.48-4.48-4.48-4.48-4.48,4.48Z"/>
  </g>
  <g>
    <rect class="cls-1" x="268.41" y="86.37" width="7.31" height="7.31" transform="translate(143.34 -166.01) rotate(45)"/>
    <path class="cls-1" d="M272.07,95.69c-.13,0-.25-.05-.35-.14l-5.17-5.17c-.19-.19-.19-.5,0-.69l5.17-5.17c.19-.19.5-.19.69,0l5.17,5.17c.19.19.19.5,0,.69l-5.17,5.17c-.09.09-.22.14-.35.14ZM267.59,90.02l4.48,4.48,4.48-4.48-4.48-4.48-4.48,4.48Z"/>
  </g>
  <path class="cls-1" d="M521.67,352.16c-.26,0-.47-.2-.49-.46-.02-.27.19-.5.46-.52,1.27-.08,2.53-.3,3.76-.63.26-.07.53.08.6.34.07.26-.08.53-.34.6-1.28.35-2.61.58-3.95.67-.01,0-.02,0-.03,0ZM517.76,352.03s-.04,0-.07,0c-1.33-.18-2.64-.49-3.9-.93-.26-.09-.39-.37-.3-.62.09-.26.37-.39.62-.3,1.2.42,2.44.72,3.7.89.27.04.46.28.42.55-.03.25-.24.42-.48.42ZM529.16,350.1c-.18,0-.35-.1-.44-.27-.12-.24-.03-.54.21-.66,1.13-.58,2.21-1.27,3.2-2.07.21-.17.52-.13.69.08.17.21.13.52-.08.69-1.05.83-2.18,1.57-3.37,2.17-.07.04-.15.05-.22.05ZM510.42,349.46c-.09,0-.17-.02-.25-.07-1.15-.69-2.23-1.49-3.21-2.39-.2-.18-.21-.49-.03-.69.18-.2.49-.21.69-.03.94.86,1.97,1.62,3.06,2.28.23.14.31.44.17.67-.09.15-.25.24-.42.24ZM535.24,345.25c-.11,0-.22-.04-.31-.11-.21-.17-.24-.48-.06-.69.82-.98,1.54-2.04,2.14-3.15.13-.24.43-.33.66-.2.24.13.33.43.2.66-.63,1.17-1.39,2.29-2.25,3.32-.1.12-.24.18-.38.18ZM504.68,344.22c-.15,0-.3-.07-.4-.2-.79-1.08-1.47-2.25-2.02-3.46-.11-.25,0-.54.24-.65.25-.11.54,0,.65.24.53,1.15,1.17,2.26,1.92,3.29.16.22.11.52-.11.68-.09.06-.19.09-.29.09ZM538.93,338.4s-.09,0-.14-.02c-.26-.08-.41-.35-.33-.61.36-1.21.61-2.47.72-3.74.02-.27.27-.47.53-.44.27.02.47.26.44.53-.12,1.33-.37,2.66-.76,3.94-.06.21-.26.35-.47.35ZM501.46,337.14c-.22,0-.43-.15-.48-.38-.29-1.3-.46-2.64-.49-3.98,0-.08.02-.16.05-.22-.03-.07-.05-.14-.05-.22,0-1.34.13-2.68.4-3.99.05-.26.31-.44.58-.38.26.05.44.31.38.58-.25,1.24-.38,2.51-.38,3.79,0,.08-.02.15-.05.21.03.06.05.14.05.21.03,1.27.18,2.55.46,3.78.06.26-.11.53-.37.59-.04,0-.07.01-.11.01ZM539.62,330.65c-.25,0-.46-.19-.49-.44-.14-1.26-.41-2.52-.8-3.72-.08-.26.06-.53.31-.62.26-.08.53.06.62.31.41,1.27.7,2.59.84,3.92.03.27-.16.51-.43.54-.02,0-.04,0-.05,0ZM502.53,325.2c-.06,0-.13-.01-.19-.04-.25-.11-.36-.39-.26-.64.52-1.23,1.18-2.41,1.94-3.51.15-.22.46-.28.68-.12.22.15.28.46.12.68-.73,1.05-1.35,2.17-1.85,3.33-.08.19-.26.3-.45.3ZM537.22,323.26c-.17,0-.34-.09-.43-.25-.63-1.1-1.37-2.15-2.21-3.11-.18-.2-.16-.51.05-.69.2-.18.51-.16.69.05.88,1.01,1.66,2.11,2.32,3.27.13.23.05.53-.18.67-.08.04-.16.06-.24.06ZM506.97,318.81c-.13,0-.26-.05-.35-.15-.19-.2-.18-.51.02-.69.97-.92,2.03-1.75,3.16-2.46.23-.14.53-.08.67.15.14.23.08.53-.15.68-1.07.68-2.09,1.47-3,2.34-.09.09-.22.14-.34.14ZM532.1,317.4c-.1,0-.21-.03-.3-.1-1.01-.77-2.1-1.44-3.25-1.99-.24-.12-.35-.41-.23-.65s.41-.35.65-.23c1.2.58,2.35,1.29,3.41,2.1.22.16.26.47.09.69-.1.13-.24.19-.39.19ZM513.55,314.67c-.2,0-.38-.12-.46-.32-.09-.25.03-.54.29-.63,1.25-.47,2.55-.81,3.88-1.02.27-.04.52.14.56.41.04.27-.14.52-.41.56-1.26.2-2.5.52-3.68.97-.06.02-.11.03-.17.03ZM525.1,314.02s-.08,0-.12-.01c-1.23-.31-2.5-.49-3.77-.55-.27-.01-.48-.24-.47-.51.01-.27.24-.48.51-.47,1.34.06,2.67.25,3.96.58.26.07.42.33.36.59-.06.22-.26.37-.47.37Z"/>
  <path class="cls-1" d="M639.65,119.28h0c-1.42-.02-2.78-.45-3.95-1.26-.22-.15-.28-.46-.12-.68.15-.22.46-.28.68-.12,1,.69,2.18,1.07,3.4,1.08.27,0,.49.23.48.5,0,.27-.22.48-.49.48ZM643.36,118.21c-.16,0-.32-.08-.41-.22-.15-.23-.08-.53.14-.68,1.02-.67,1.82-1.62,2.3-2.74.11-.25.39-.36.64-.26.25.11.36.39.26.64-.55,1.3-1.47,2.4-2.66,3.18-.08.05-.18.08-.27.08ZM633.57,115.1c-.19,0-.38-.12-.46-.31-.33-.83-.5-1.72-.5-2.62,0-1.42.42-2.79,1.21-3.96.15-.23.46-.28.68-.13.22.15.28.45.13.68-.68,1.01-1.04,2.19-1.04,3.42,0,.78.14,1.54.43,2.26.1.25-.02.54-.27.64-.06.02-.12.03-.18.03ZM646.25,111.41c-.23,0-.44-.16-.48-.4-.23-1.2-.8-2.29-1.66-3.16-.19-.19-.19-.5,0-.69.19-.19.5-.19.69,0,1,1.01,1.67,2.28,1.93,3.67.05.27-.12.52-.39.57-.03,0-.06,0-.09,0ZM637.22,106.52c-.19,0-.38-.11-.45-.3-.1-.25.02-.54.27-.64.86-.35,1.77-.53,2.7-.53h0c.48,0,.95.05,1.42.14.27.05.44.31.38.58-.05.27-.31.44-.58.38-.4-.08-.81-.12-1.23-.12h0c-.81,0-1.59.15-2.33.46-.06.02-.12.04-.19.04Z"/>
  <g>
    <path class="cls-1" d="M379.35,352.9c-2.97,0-5.15-.77-6.48-2.32-5.07-5.92,3.67-20.66,11.9-31.99,11.34-15.6,29.22-35.07,50.35-54.83.2-.18.51-.17.69.02.18.2.17.51-.02.69-43.56,40.73-69.71,76.67-62.17,85.46,4.21,4.91,19.01.67,40.6-11.64,22.11-12.6,49.07-32.21,75.91-55.21,26.84-23,50.35-46.64,66.18-66.56,15.47-19.45,21.92-33.43,17.71-38.34-4.25-4.96-19.26-.6-41.17,11.96-.23.13-.53.05-.67-.18-.13-.23-.05-.53.18-.67,22.69-13.01,37.75-17.18,42.4-11.75,4.61,5.38-1.67,19.44-17.69,39.58-15.87,19.97-39.42,43.65-66.31,66.69-26.89,23.04-53.9,42.69-76.06,55.32-15.91,9.07-28.03,13.74-35.35,13.74Z"/>
    <g>
      <g>
        <path class="cls-2" d="M354,174.31c-5.99-13.77-13-39.1-20.1-52.56-4.58-2.92-9.78-8.06-12.47-13.16-1.09-2.07-1.26-2.98-.11-4.78.85-1.32,2.82-1.36,4.17-.88-.84-1.27-2.44-2.25-1.01-4.03.64-.8,1.67-1.37,2.64-1.01-1.05-2.71,1.75-5.04,4.08-2.7-2.07-3.18-3.96-6.03-6.03-8.94-1.28-1.8-2.61-4-1.54-5.07,1.37-1.37,3.46.5,5.94,3.46,4.24,5.06,5.64,6.75,10.08,11.19,4.18,4.18,8.63,12.54,6.89,16.34,1.39,5.78,22.52,39.32,29.44,46.25,2.53,2.53.46,4.96-.13,8.49-.72,4.26-3.83,19.26-14.64,14.38-3.07-1.38-6.84-6.15-7.2-6.97Z"/>
        <path class="cls-1" d="M365.23,182.73c-1.33,0-2.74-.34-4.23-1.01-3.22-1.45-7.04-6.29-7.44-7.22h0c-2.49-5.73-5.13-13.37-7.93-21.47-3.92-11.36-7.98-23.1-12.1-30.94-4.19-2.7-9.66-7.82-12.53-13.27-1.18-2.23-1.35-3.3-.09-5.27.7-1.09,2.05-1.47,3.37-1.37-.73-.91-1.42-2.04-.18-3.58.66-.82,1.52-1.28,2.35-1.3-.2-1.26.27-2.47,1.27-3.13.52-.34,1.21-.53,1.97-.38-1.53-2.34-3.17-4.79-4.93-7.26-1.48-2.08-2.81-4.38-1.49-5.7.42-.42.92-.63,1.49-.6,1.29.06,2.78,1.24,5.17,4.1l.1.12c4.16,4.97,5.57,6.65,9.96,11.04,4.06,4.06,8.76,12.52,7.06,16.73,1.63,5.83,22.22,38.81,29.27,45.86,2.03,2.03,1.39,4.07.71,6.24-.26.85-.54,1.72-.7,2.68-.75,4.44-2.73,12.28-7.62,14.89-1.08.58-2.24.86-3.47.86ZM323.86,103.15c-.87,0-1.71.28-2.13.93-1.03,1.61-.91,2.32.13,4.29,2.81,5.34,8.21,10.36,12.3,12.97.07.05.13.11.17.18,4.17,7.91,8.26,19.75,12.22,31.2,2.79,8.07,5.42,15.7,7.9,21.39h0c.32.74,4.01,5.4,6.95,6.72,2.58,1.16,4.88,1.22,6.84.17,4.52-2.41,6.4-9.92,7.12-14.19.17-1.03.47-1.97.73-2.81.66-2.12,1.14-3.65-.47-5.25-6.79-6.79-28.07-40.23-29.57-46.48-.03-.11-.01-.22.03-.32,1.56-3.42-2.44-11.44-6.79-15.79-4.42-4.42-5.83-6.1-10.01-11.1l-.1-.12c-1.33-1.58-3.23-3.69-4.47-3.75-.29-.01-.53.09-.75.31-.91.91.97,3.57,1.59,4.44,2.19,3.08,4.2,6.13,6.04,8.96.14.21.09.49-.1.65-.2.16-.48.14-.65-.03-.85-.85-1.81-1.05-2.59-.54-.67.43-1.17,1.47-.68,2.73.07.18.03.38-.11.52-.14.14-.34.18-.52.11-.74-.28-1.58.23-2.08.86-.83,1.04-.43,1.62.41,2.63.22.26.44.53.63.82.12.18.11.41-.02.57-.13.17-.35.23-.55.16-.45-.16-.97-.25-1.47-.25Z"/>
      </g>
      <path class="cls-1" d="M329.14,110.9c-.3,0-.61-.06-.91-.17-.64-.25-1.15-.69-1.6-1.09l-2.09-1.83c-.2-.18-.22-.49-.05-.69.18-.2.49-.22.69-.05l2.09,1.83c.41.36.83.73,1.3.91.45.17.92.14,1.19-.09.34-.28.38-.82.28-1.21-.14-.52-.49-.98-.84-1.41-1.31-1.6-1.64-1.86-2.61-2.63-.36-.29-.81-.64-1.43-1.16-.21-.17-.23-.48-.06-.69.17-.21.48-.23.69-.06.61.51,1.05.86,1.41,1.14,1,.79,1.38,1.09,2.76,2.78.4.49.85,1.07,1.03,1.78.23.86,0,1.73-.6,2.21-.34.28-.78.43-1.26.43Z"/>
      <path class="cls-1" d="M332.94,109.09c-.47,0-.93-.15-1.36-.33-.52-.21-1.04-.44-1.55-.68-.24-.11-.35-.41-.24-.65.11-.24.41-.35.65-.23.49.23,1,.45,1.51.66.49.2,1,.36,1.35.18.44-.23.54-.95.41-1.55-.2-.93-1.54-3.08-6.79-8.09l-.15-.14c-.2-.19-.2-.5-.02-.69.19-.19.5-.2.69-.02l.15.14c4.42,4.22,6.73,7.03,7.07,8.59.21.97,0,2.15-.93,2.63-.26.13-.53.19-.8.19Z"/>
      <path class="cls-1" d="M336.72,112.66c-.18,0-.35-.09-.43-.26-1.25-2.38-.2-4.81.57-6.58.29-.67.73-1.68.55-1.87-.58-.62-3.06-.82-4.26-.92-.67-.06-.98-.08-1.16-.14-1.33-.44-1.89-1.15-2.12-1.67-.2-.46-.23-.95-.07-1.32.22-.5,1.07-1.59,1.75-1.81,1.25-.41,4.23-.32,6.92-.2.35.02.65.03.88.04,1.01.03,3.98,1.11,4.33,2.3.08.26-.07.53-.33.61-.26.08-.53-.07-.61-.33-.14-.49-2.45-1.57-3.42-1.6-.24,0-.54-.02-.89-.04-1.88-.08-5.39-.24-6.57.16-.27.09-.98.87-1.16,1.28-.02.05-.06.25.07.52.12.28.49.79,1.53,1.14.1.03.55.07.94.1,2.05.17,4.12.41,4.89,1.23.61.66.18,1.66-.37,2.92-.73,1.68-1.64,3.77-.6,5.74.13.24.03.53-.2.66-.07.04-.15.06-.23.06Z"/>
      <path class="cls-1" d="M333.9,98.76c-.17,0-.33-.09-.42-.24-.28-.48-1.16-1.43-1.86-2.19-.37-.4-.72-.78-.96-1.06-.17-.21-.15-.52.06-.69.21-.17.52-.15.69.06.23.27.57.64.94,1.03.78.84,1.66,1.79,1.99,2.36.14.23.06.53-.18.67-.08.04-.16.07-.25.07Z"/>
      <path class="cls-1" d="M334.85,107.39c-.13,0-.25-.01-.37-.04-.26-.06-.42-.33-.36-.59.06-.26.33-.42.59-.36.26.06.69-.07.97-.46.42-.58.32-1.47-.27-2.43-.14-.23-.07-.53.16-.67.23-.14.53-.07.67.16,1.16,1.87.55,3.09.23,3.52-.4.55-1.03.88-1.63.88Z"/>
    </g>
    <g>
      <path class="cls-1" d="M533.46,196.24c-3.77-19.79-3.79-41.03-19.73-54.33-7.65-6.39-25.79-9.14-36.42-9.83-.65,10.29-10.71,12.74-17.16,12.33-10.76-.69-12.67-2.81-15.41-10.97-2.41.96-16.94,1.69-26.38,10.12-17.52,15.65-40.45,13.21-41.7,14.46-1.74,1.74,2.54,16.92-12.91,24.08-6.5,3.01,32.44,9.2,59.26,2.1-1,14.03,7.2,52.9,10.11,68.66,27.97,19.51,82.33-.48,82.33-.48,0,0-4.4-12.95-4.4-22.72,0-4.84,16.94,5.18,19.19,5.58.75.13,2.44-.48,2.74-1.18,1.89-4.42,3.94-19.62.47-37.83Z"/>
      <path class="cls-1" d="M466.46,261.88c-11.82,0-24.21-2.05-33.62-8.61-.11-.07-.18-.19-.2-.31-.46-2.51-1.05-5.57-1.74-9.1-3.61-18.69-9.03-46.75-8.43-59-14.19,3.62-29.98,3.33-38.2,2.83-10.19-.62-20.9-2.38-21.68-4.53-.12-.34-.16-.98.95-1.49,11.33-5.25,11.8-14.97,12.05-20.19.1-2.01.15-3.22.72-3.78.39-.39,1.28-.47,4.03-.67,7.23-.52,24.18-1.74,37.7-13.82,7.48-6.68,17.89-8.55,23.48-9.56,1.43-.26,2.57-.46,3.05-.65.13-.05.26-.05.39.01.12.06.22.16.26.29,2.68,8.02,4.38,9.96,14.97,10.64,1.78.11,6.38.14,10.48-2.09,3.8-2.06,5.87-5.36,6.15-9.78,0-.13.07-.25.17-.34.1-.09.23-.13.35-.12,12.39.8,29.44,3.88,36.7,9.94,13.09,10.93,15.61,27.43,18.05,43.39.56,3.69,1.15,7.52,1.85,11.22h0c3.32,17.43,1.66,33.05-.5,38.11-.41.96-2.37,1.63-3.28,1.47-.65-.12-2.11-.81-4.63-2.03-4.17-2.02-11.94-5.77-13.7-4.67-.13.08-.29.23-.29.64,0,9.57,4.33,22.43,4.37,22.56.09.25-.05.53-.29.62-.14.05-13.83,5.04-30.77,7.58-5.56.83-11.89,1.45-18.39,1.45ZM433.57,252.58c14.32,9.86,35.7,9.19,51.14,6.88,15.14-2.27,27.65-6.5,30.13-7.37-.78-2.4-4.27-13.71-4.27-22.42,0-.83.41-1.26.75-1.47,2.05-1.28,7.84,1.33,14.64,4.62,1.97.95,3.83,1.85,4.38,1.95.6.1,2.03-.47,2.21-.89,1.64-3.85,4.04-18.64.44-37.54h0c-.71-3.73-1.29-7.55-1.86-11.26-2.52-16.51-4.9-32.1-17.71-42.79-6.99-5.83-23.46-8.85-35.66-9.68-.42,4.48-2.7,7.96-6.62,10.09-4.33,2.35-9.15,2.33-11.01,2.21-10.67-.68-12.94-2.82-15.68-10.85-.63.17-1.56.34-2.75.55-5.5.99-15.73,2.83-23,9.32-13.77,12.3-30.94,13.54-38.28,14.06-1.62.12-3.15.23-3.43.4-.28.28-.34,1.72-.41,3.12-.26,5.43-.74,15.54-12.61,21.04-.38.18-.44.3-.44.3.25.92,7.37,3.02,20.66,3.85,14.16.88,28.27-.2,38.7-2.96.15-.04.32,0,.44.1.12.1.19.25.18.41-.84,11.73,4.92,41.58,8.37,59.42.67,3.45,1.24,6.44,1.7,8.91Z"/>
    </g>
    <path class="cls-1" d="M504.59,214.02c-.21,0-.4-.13-.46-.34-5.71-17.29-8.94-28.22-8.94-51.92,0-.27.22-.49.49-.49s.49.22.49.49c0,23.55,3.21,34.42,8.89,51.62.08.26-.05.53-.31.62-.05.02-.1.02-.15.02Z"/>
    <path class="cls-1" d="M423.01,184.69c-.12,0-.23-.04-.33-.12-.29-.26-.29-.54-.35-4.03-.04-2.59-.1-6.93-.34-13.53,0-.27.2-.5.47-.51.27-.02.5.2.51.47.24,6.61.31,10.95.34,13.55.03,1.87.05,3.13.11,3.42.11.18.09.42-.05.58-.1.11-.23.16-.36.16ZM423.33,183.84s0,0,0,0c0,0,0,0,0,0Z"/>
    <path class="cls-2" d="M453.15,175.03c-10.74,0-20.49-.95-25.64-3.57-.08-.04-.11-.14-.07-.22.04-.08.14-.11.22-.07,10.62,5.41,41.12,3.64,59.03,1.13.09-.01.17.05.18.14.01.09-.05.17-.14.18-9.31,1.3-22.02,2.41-33.59,2.41Z"/>
    <path class="cls-2" d="M464.61,190.11c-14.26,0-27.29-2.27-37.07-4.66-.09-.02-.14-.11-.12-.2.02-.09.11-.14.2-.12,15,3.67,37.69,7.05,60.66,2.35.09-.02.17.04.19.13.02.09-.04.17-.13.19-8.05,1.65-16.07,2.3-23.74,2.3Z"/>
    <path class="cls-2" d="M534.71,218.77s-.09-.02-.12-.06c-6.88-8.09-18.08-12.17-28.55-10.38-.09.02-.17-.04-.19-.13-.02-.09.04-.17.13-.19,10.58-1.81,21.91,2.31,28.86,10.49.06.07.05.17-.02.23-.03.03-.07.04-.11.04Z"/>
    <path class="cls-2" d="M533.46,211.31s-.04,0-.06-.01c-1.11-.45-2.02-1.26-2.89-2.04-.31-.27-.62-.56-.94-.82-1.95-1.6-4.3-2.64-6.8-3.01-.09-.01-.15-.1-.14-.19.01-.09.1-.15.19-.14,2.55.38,4.96,1.44,6.96,3.08.32.27.64.55.95.83.85.76,1.74,1.55,2.79,1.98.08.03.12.13.09.21-.03.06-.09.1-.15.1Z"/>
    <path class="cls-2" d="M379.09,173.15s-.04,0-.06-.01c-.08-.03-.12-.13-.09-.21,1.77-4.31,2.63-9.05,2.51-13.71,0-.09.07-.17.16-.17.1,0,.16.07.17.16.13,4.7-.75,9.49-2.53,13.84-.03.06-.09.1-.15.1Z"/>
    <path class="cls-2" d="M385.52,164.48s-.02,0-.04,0c-.09-.02-.14-.11-.12-.19.38-1.66.48-3.36.31-5.05,0-.09.06-.17.15-.18.09,0,.17.06.18.15.17,1.73.06,3.46-.32,5.15-.02.08-.08.13-.16.13Z"/>
    <path class="cls-2" d="M506.01,215.05c-.22,0-.41-.14-.47-.36-3.86-14.21-6.5-28.81-7.84-43.41-.02-.27.17-.51.44-.53.27-.02.51.17.53.44,1.33,14.54,3.96,29.09,7.81,43.25.07.26-.08.53-.34.6-.04.01-.09.02-.13.02Z"/>
    <path class="cls-2" d="M421.85,187.35h0c-.27,0-.49-.23-.48-.5l.25-16.14c0-.27.22-.48.49-.48h0c.27,0,.49.23.48.5l-.25,16.14c0,.27-.22.48-.49.48Z"/>
    <g>
      <rect class="cls-2" x="406.55" y="162.22" width="56.8" height="74.03" transform="translate(-30.15 87.15) rotate(-11.06)"/>
      <path class="cls-1" d="M414.18,241.5c-.1,0-.19-.03-.27-.08-.11-.07-.18-.18-.21-.31l-14.2-72.66c-.02-.13,0-.26.07-.37.07-.11.18-.18.31-.21l55.74-10.9c.26-.05.52.12.57.39l14.2,72.65c.05.27-.12.52-.39.57l-55.74,10.9s-.06,0-.09,0ZM400.55,168.74l14.02,71.69,54.78-10.71-14.02-71.69-54.78,10.71Z"/>
    </g>
    <path class="cls-1" d="M440.34,322.81c-.24,0-.44-.17-.48-.41-3.08-19.3-3.93-39.15-4.76-58.34-.14-3.37-.29-6.74-.45-10.11-.01-.27.2-.5.47-.51.27,0,.5.2.51.47.16,3.37.3,6.74.45,10.12.82,19.17,1.67,38.98,4.75,58.23.04.27-.14.52-.41.56-.03,0-.05,0-.08,0Z"/>
    <path class="cls-1" d="M482.57,290.61c-.19,0-.37-.11-.45-.3-1.41-3.37-2.23-5.71-2.95-7.78-.72-2.07-1.3-3.73-2.24-5.69-2.09.28-6.53.16-8.74.1h-.57c-.27-.02-.48-.25-.48-.52,0-.27.22-.47.5-.48l.57.02c2.31.06,7.13.19,8.9-.14.22-.04.43.07.53.27,1.05,2.16,1.67,3.91,2.44,6.13.72,2.05,1.53,4.38,2.93,7.72.1.25-.01.54-.26.64-.06.03-.13.04-.19.04Z"/>
    <path class="cls-1" d="M515.78,260.73c-.21,0-.4-.13-.47-.34-.15-.48-.38-1.12-.63-1.8-.67-1.82-1.5-4.08-1.56-5.54-.01-.27.2-.5.47-.51.27-.03.5.2.51.47.06,1.31.86,3.49,1.51,5.24.25.69.49,1.34.65,1.84.08.26-.06.53-.32.61-.05.02-.1.02-.15.02Z"/>
    <g>
      <path class="cls-2" d="M524.38,216.11c-3.89-1.5-41.12-14.32-46.31-20.16-3.32-3.73-12.8-11.23-15.51-11.64-4.54-.68-7.48-1.68-11.3-.96-3.19.6-8.94,3.38-8.76,4.5.56,3.5,7.84-1.25,8.6-1.23,2.63.05,5.27.22,8.26,2.2-3.23,1.2-8.69,3.83-9.84,5.21-1.21,1.46-3.55,7.7-3.72,8.73-.28,1.78,1.03,3,2.4.79.07-.12,3.02-4.1,3.85-6.28.33-.88,5.89-3.31,8.69-3.67-3.01,0-7.93,2.3-8.72,3.69-.19.33-2.9,6.37-3.01,6.92-.46,2.32,1.67,2.42,2.8.8,1.28-1.84,2.39-4.51,2.75-4.88,2-2.03,4.72-2.15,6.87-2.59-2.16.28-4.64.65-6.81,2.42-.39.32-3.73,5.44-2.08,6.89.88.78,2.87-.45,4.53-4.28,1.64-.3,2.65-.22,4.05-.34.98-.08,6.34,5.76,10.52,6.59.84.17,15.74,17.22,36.54,27.57,1.86.92,18.14,7.36,24.86-3.08,1.65-2.56,3.07-12.68-8.66-17.2Z"/>
      <path class="cls-1" d="M520.71,239.68c-5.47,0-10.75-1.86-12.74-2.85-16.63-8.27-29.59-20.9-34.47-25.65-.95-.92-1.77-1.73-2.01-1.89-2.73-.57-5.81-3.07-8.06-4.89-.93-.75-1.97-1.6-2.29-1.68-.48.04-.91.06-1.33.08-.76.03-1.47.06-2.39.21-1.14,2.54-2.58,4.22-3.88,4.51-.5.11-.97,0-1.32-.3-.35-.31-.55-.73-.6-1.27-.69.59-1.55.81-2.23.52-.29-.12-1.21-.66-.87-2.36.01-.07.05-.19.12-.36-.02.03-.03.04-.04.05-.99,1.61-1.94,1.47-2.3,1.34-.77-.29-1.18-1.3-.99-2.47.18-1.12,2.56-7.44,3.82-8.96,1.17-1.4,6.04-3.75,9.12-5-2.48-1.39-4.72-1.56-7.15-1.61-.18.04-.77.33-1.3.59-2.07,1.01-5.19,2.53-6.82,1.68-.37-.19-.84-.6-.97-1.45-.28-1.77,6.51-4.56,9.16-5.06,2.97-.56,5.35-.12,8.37.43.97.18,1.98.36,3.09.53,2.88.43,12.44,8.01,15.8,11.8,4.42,4.97,33.39,15.42,42.91,18.86,1.56.56,2.69.97,3.21,1.17h0c6.16,2.37,8.54,6.2,9.45,8.99,1.27,3.91.34,7.55-.55,8.93-3.01,4.68-7.95,6.1-12.75,6.1ZM461.15,201.73c.53,0,1.26.57,2.9,1.9,2.06,1.67,5.18,4.2,7.69,4.7.29.06.58.32,2.44,2.13,4.85,4.72,17.73,17.27,34.22,25.48.17.08,17.36,7.76,24.23-2.91.85-1.32,1.55-4.7.44-8.1-1.21-3.72-4.28-6.61-8.87-8.38-.52-.2-1.64-.6-3.19-1.17-10.59-3.82-38.72-13.97-43.31-19.13-3.42-3.84-12.78-11.11-15.22-11.48-1.13-.17-2.14-.35-3.13-.53-2.92-.53-5.23-.96-8.02-.43-3.32.62-8.12,3.16-8.37,3.97.08.46.3.63.45.71,1.19.62,4.28-.88,5.94-1.69,1.04-.51,1.43-.69,1.71-.69h.01c2.75.05,5.48.27,8.52,2.28.15.1.24.28.22.46-.02.18-.14.34-.31.4-3.56,1.33-8.65,3.89-9.64,5.07-1.12,1.35-3.45,7.47-3.61,8.49-.12.74.1,1.3.37,1.4.22.08.66-.18,1.14-.94,0-.02.06-.09.15-.21,1.55-2.16,2.48-3.65,3.03-4.66.34-.74.59-1.28.64-1.37.88-1.55,5.94-3.94,9.15-3.94h0c.26,0,.47.2.49.46.02.26-.17.48-.43.52-2.89.37-7.93,2.72-8.31,3.37-.12.33-.33.79-.67,1.41-.85,1.88-2.25,5.07-2.34,5.44-.13.66-.02,1.13.29,1.26.39.17,1.12-.11,1.63-.84.18-.26.35-.53.53-.81.65-1.96,2.06-4.07,2.38-4.34.34-.28.69-.53,1.05-.74.62-.41,1.28-.7,1.94-.92,1.46-.52,2.89-.71,4.07-.86.26-.04.5.15.55.4.04.26-.13.51-.39.56-.37.07-.75.14-1.14.21-1.02.17-2.12.36-3.16.76-.38.15-.76.33-1.12.55-.42.25-.82.56-1.19.94-.11.12-.43.75-.71,1.31-.37.74-.85,1.67-1.37,2.55-.16.49-.25.97-.24,1.37,0,.36.1.62.28.78.04.04.16.14.46.08.76-.17,2.08-1.37,3.3-4.18.07-.15.2-.26.36-.29,1.11-.2,1.96-.24,2.78-.27.42-.02.85-.04,1.32-.08.02,0,.04,0,.06,0ZM451.08,187.1h0,0Z"/>
    </g>
    <g>
      <path class="cls-1" d="M429.55,201.03c-.38-2.4,1.72-4.73,4.7-5.21,2.98-.47,5.7,1.09,6.08,3.49.38,2.4-1.72,4.73-4.7,5.21-2.98.47-5.7-1.09-6.08-3.49Z"/>
      <path class="cls-1" d="M434.58,205.09c-2.78,0-5.14-1.64-5.51-3.99-.21-1.31.22-2.64,1.21-3.73.96-1.07,2.35-1.79,3.9-2.04,1.55-.25,3.09.01,4.34.73,1.28.73,2.1,1.86,2.31,3.17.21,1.31-.22,2.64-1.21,3.73-.96,1.07-2.35,1.79-3.9,2.04-.38.06-.76.09-1.13.09ZM435.32,196.23c-.33,0-.66.03-.99.08-1.33.21-2.51.82-3.32,1.73-.79.87-1.13,1.91-.97,2.92.34,2.13,2.82,3.51,5.52,3.08,1.33-.21,2.51-.82,3.32-1.73.79-.87,1.13-1.91.97-2.92-.16-1.01-.81-1.89-1.83-2.48-.79-.45-1.72-.69-2.7-.69Z"/>
    </g>
    <path class="cls-1" d="M473.21,298c-.27,0-.48-.21-.49-.48-.11-5.39-.14-7.98-.17-10.49-.03-2.51-.07-5.1-.17-10.49,0-.27.21-.49.48-.5h0c.27,0,.48.21.49.48.11,5.39.14,7.98.17,10.49.03,2.51.07,5.1.17,10.49,0,.27-.21.49-.48.5h0Z"/>
    <g>
      <path class="cls-1" d="M376.96,352.23s-7.44-3.16,29.3-45.3c28.27-32.41,29.64-32.31,29.64-32.31l-.52-10.47s-35.22,34.09-50.05,54.51c-22.3,30.71-8.37,33.57-8.37,33.57Z"/>
      <path class="cls-1" d="M376.97,352.72s-.07,0-.11-.01c-.12-.02-2.83-.62-4.08-3.84-1.59-4.09-.76-12.7,12.16-30.49,14.69-20.22,49.76-54.23,50.11-54.58.14-.13.34-.17.52-.1.18.07.3.24.31.43l.52,10.47c0,.14-.05.28-.15.37-.05.05-.11.09-.18.11-.36.21-3.78,2.75-29.44,32.17-28,32.11-30.14,41.34-29.77,43.82.08.5.25.67.3.71.24.07.36.32.3.57-.05.22-.27.37-.5.37ZM377.15,351.78h0ZM434.95,265.26c-5.26,5.14-35.8,35.22-49.22,53.69-12.64,17.4-13.53,25.67-12.05,29.54.57,1.48,1.48,2.31,2.22,2.76-.53-3.33,2.87-13.53,29.99-44.64,14.61-16.75,21.9-24.65,25.44-28.33,2.45-2.55,3.54-3.54,4.07-3.92l-.45-9.11ZM435.87,275.11s.05,0,.07,0c-.02,0-.05,0-.07,0ZM435.87,275.11s0,0,0,0c0,0,0,0,0,0Z"/>
    </g>
    <g>
      <path class="cls-1" d="M531.38,190.5s40.08-25.33,43.92-11.07c-4.13-6.11-42.42,21.1-42.42,21.1l-1.5-10.04Z"/>
      <path class="cls-1" d="M532.88,201.03c-.06,0-.13-.01-.19-.04-.16-.07-.27-.21-.29-.38l-1.5-10.04c-.03-.19.06-.38.22-.49,1.23-.78,30.33-19.04,41.02-14.88,1.88.73,3.1,2.11,3.64,4.1.06.23-.05.47-.27.57-.22.1-.48.03-.61-.17-.22-.32-.58-.53-1.1-.62-7.78-1.41-40.31,21.61-40.64,21.85-.08.06-.18.09-.28.09ZM531.91,190.75l1.33,8.93c4.8-3.37,33.08-22.94,40.73-21.55.1.02.2.04.3.07-.55-.95-1.37-1.63-2.49-2.07-9.7-3.79-36.86,12.76-39.87,14.62Z"/>
    </g>
  </g>
</svg>